<svg width="71" height="17" viewBox="0 0 71 17" fill="none" xmlns="http://www.w3.org/2000/svg">
<mask id="path-1-outside-1_26_465" maskUnits="userSpaceOnUse" x="-0.19397" y="3" width="64" height="13" fill="black">
<rect fill="white" x="-0.19397" y="3" width="64" height="13"/>
<path d="M4.60003 14.266C4.0307 14.266 3.54536 14.196 3.14403 14.056C2.75203 13.916 2.43003 13.7527 2.17803 13.566C1.92603 13.37 1.7347 13.1927 1.60403 13.034C1.47336 12.8753 1.39403 12.7773 1.36603 12.74C1.17936 12.5067 1.0627 12.2967 1.01603 12.11C0.978697 11.9233 1.0067 11.7367 1.10003 11.55C1.2027 11.3633 1.3707 11.158 1.60403 10.934C1.8187 10.7287 2.0287 10.6167 2.23403 10.598C2.43936 10.57 2.64003 10.612 2.83603 10.724C3.04136 10.836 3.23736 10.9993 3.42403 11.214C3.64803 11.466 3.83936 11.6387 3.99803 11.732C4.1567 11.816 4.3387 11.858 4.54403 11.858C4.79603 11.858 5.00136 11.83 5.16003 11.774C5.3187 11.7087 5.43536 11.6153 5.51003 11.494C5.5847 11.3633 5.62203 11.2 5.62203 11.004C5.62203 10.8453 5.5427 10.724 5.38403 10.64C5.22536 10.5467 5.01536 10.4673 4.75403 10.402C4.50203 10.3367 4.21736 10.2667 3.90003 10.192C3.5827 10.108 3.27003 10.0007 2.96203 9.87C2.77536 9.79533 2.59336 9.702 2.41603 9.59C2.2387 9.478 2.0707 9.352 1.91203 9.212C1.7627 9.06267 1.63203 8.89 1.52003 8.694C1.40803 8.48867 1.31936 8.26 1.25403 8.008C1.19803 7.756 1.17003 7.47133 1.17003 7.154C1.17003 6.58467 1.31003 6.076 1.59003 5.628C1.87936 5.18 2.27136 4.82533 2.76603 4.564C3.27003 4.30267 3.83936 4.172 4.47403 4.172C4.93136 4.172 5.32336 4.20933 5.65003 4.284C5.9767 4.35867 6.2427 4.44733 6.44803 4.55C6.6627 4.65267 6.82603 4.75067 6.93803 4.844C7.05003 4.928 7.12003 4.984 7.14803 5.012C7.45603 5.292 7.62403 5.53467 7.65203 5.74C7.68003 5.936 7.56803 6.22067 7.31603 6.594C7.03603 6.99533 6.7607 7.224 6.49003 7.28C6.21936 7.32667 5.9067 7.238 5.55203 7.014C5.47736 6.958 5.4027 6.89733 5.32803 6.832C5.25336 6.75733 5.1507 6.69667 5.02003 6.65C4.8987 6.594 4.71203 6.566 4.46003 6.566C4.3667 6.566 4.27336 6.58467 4.18003 6.622C4.0867 6.65 4.00736 6.692 3.94203 6.748C3.8767 6.79467 3.8207 6.85533 3.77403 6.93C3.7367 7.00467 3.71803 7.084 3.71803 7.168C3.71803 7.364 3.7927 7.518 3.94203 7.63C4.09136 7.73267 4.28736 7.812 4.53003 7.868C4.78203 7.924 5.05736 7.98 5.35603 8.036C5.6547 8.092 5.95803 8.16667 6.26603 8.26C6.51803 8.344 6.7607 8.45133 6.99403 8.582C7.22736 8.71267 7.4327 8.88067 7.61003 9.086C7.78736 9.29133 7.92736 9.548 8.03003 9.856C8.14203 10.1547 8.19803 10.5233 8.19803 10.962C8.19803 11.5687 8.08136 12.0867 7.84803 12.516C7.6147 12.936 7.31136 13.2767 6.93803 13.538C6.57403 13.79 6.18203 13.972 5.76203 14.084C5.35136 14.2053 4.96403 14.266 4.60003 14.266ZM15.3827 4.312C15.56 4.312 15.728 4.326 15.8867 4.354C16.0453 4.382 16.176 4.47067 16.2787 4.62C16.3907 4.76933 16.4467 5.026 16.4467 5.39C16.4467 5.74467 16.3907 6.00133 16.2787 6.16C16.176 6.30933 16.0407 6.398 15.8727 6.426C15.714 6.454 15.546 6.468 15.3687 6.468H13.4367V12.88C13.4367 13.0853 13.418 13.286 13.3807 13.482C13.3433 13.6687 13.236 13.8227 13.0587 13.944C12.8907 14.0653 12.592 14.126 12.1627 14.126C11.752 14.126 11.458 14.0653 11.2807 13.944C11.1033 13.8133 10.996 13.6547 10.9587 13.468C10.9307 13.272 10.9167 13.0713 10.9167 12.866V6.468H8.97066C8.80266 6.468 8.63466 6.454 8.46666 6.426C8.30799 6.38867 8.17266 6.29533 8.06066 6.146C7.95799 5.99667 7.90666 5.74 7.90666 5.376C7.90666 5.02133 7.95799 4.76933 8.06066 4.62C8.17266 4.47067 8.31266 4.382 8.48066 4.354C8.64866 4.326 8.81666 4.312 8.98466 4.312H15.3827ZM21.3557 14.28C20.6464 14.28 20.0211 14.14 19.4797 13.86C18.9477 13.5707 18.4997 13.1927 18.1357 12.726C17.7717 12.2593 17.4964 11.746 17.3097 11.186C17.1324 10.626 17.0437 10.0707 17.0437 9.52V5.6C17.0437 5.38533 17.0624 5.18 17.0997 4.984C17.1371 4.788 17.2444 4.62933 17.4217 4.508C17.5991 4.37733 17.9024 4.312 18.3317 4.312C18.7611 4.312 19.0644 4.37733 19.2417 4.508C19.4191 4.62933 19.5264 4.788 19.5637 4.984C19.6011 5.18 19.6197 5.39 19.6197 5.614V9.52C19.6197 9.828 19.6711 10.15 19.7737 10.486C19.8764 10.822 20.0537 11.1113 20.3057 11.354C20.5671 11.5873 20.9311 11.704 21.3977 11.704C21.7524 11.704 22.0604 11.6153 22.3217 11.438C22.5831 11.2513 22.7837 10.9947 22.9237 10.668C23.0731 10.332 23.1477 9.94467 23.1477 9.506V5.53C23.1477 5.32467 23.1664 5.13333 23.2037 4.956C23.2504 4.76933 23.3624 4.61533 23.5397 4.494C23.7171 4.37267 24.0157 4.312 24.4357 4.312C24.8651 4.312 25.1637 4.37733 25.3317 4.508C25.5091 4.63867 25.6164 4.802 25.6537 4.998C25.6911 5.194 25.7097 5.39933 25.7097 5.614V9.548C25.7097 10.108 25.6164 10.668 25.4297 11.228C25.2431 11.7787 24.9631 12.2873 24.5897 12.754C24.2257 13.2113 23.7731 13.58 23.2317 13.86C22.6904 14.14 22.0651 14.28 21.3557 14.28ZM27.765 14.112C27.3637 14.112 27.0743 14.0513 26.897 13.93C26.7197 13.8087 26.6077 13.65 26.561 13.454C26.5143 13.258 26.491 13.048 26.491 12.824V5.586C26.491 5.38067 26.5097 5.18 26.547 4.984C26.5843 4.788 26.6917 4.62933 26.869 4.508C27.0463 4.37733 27.3497 4.31667 27.779 4.326H30.187C30.8497 4.326 31.475 4.452 32.063 4.704C32.651 4.956 33.169 5.306 33.617 5.754C34.0743 6.19267 34.429 6.706 34.681 7.294C34.9423 7.882 35.073 8.50733 35.073 9.17C35.073 9.85133 34.9423 10.4907 34.681 11.088C34.429 11.6853 34.0743 12.2127 33.617 12.67C33.169 13.118 32.6463 13.4727 32.049 13.734C31.461 13.986 30.8263 14.112 30.145 14.112H27.765ZM29.053 11.55H30.187C30.607 11.55 30.9943 11.4473 31.349 11.242C31.7037 11.0273 31.9837 10.7473 32.189 10.402C32.4037 10.0473 32.511 9.65533 32.511 9.226C32.511 8.79667 32.4037 8.40467 32.189 8.05C31.9837 7.69533 31.7037 7.41533 31.349 7.21C30.9943 6.99533 30.6023 6.888 30.173 6.888H29.053V11.55ZM37.0788 14.126C36.6588 14.126 36.3602 14.0653 36.1828 13.944C36.0055 13.8133 35.8982 13.65 35.8608 13.454C35.8235 13.2487 35.8048 13.0433 35.8048 12.838V5.6C35.8048 5.11467 35.8982 4.78333 36.0848 4.606C36.2808 4.41933 36.6262 4.326 37.1208 4.326H42.2448C42.4595 4.326 42.6602 4.34467 42.8468 4.382C43.0428 4.41933 43.2015 4.52667 43.3228 4.704C43.4535 4.88133 43.5188 5.18467 43.5188 5.614C43.5188 6.034 43.4535 6.33267 43.3228 6.51C43.2015 6.68733 43.0428 6.79467 42.8468 6.832C42.6508 6.86933 42.4455 6.888 42.2308 6.888H38.3668V8.134H40.9568C41.1715 8.134 41.3628 8.15267 41.5308 8.19C41.6988 8.218 41.8342 8.30667 41.9368 8.456C42.0395 8.60533 42.0908 8.86667 42.0908 9.24C42.0908 9.59467 42.0395 9.85133 41.9368 10.01C41.8342 10.1593 41.6942 10.248 41.5168 10.276C41.3395 10.304 41.1435 10.318 40.9288 10.318H38.3668V11.564H42.2448C42.4595 11.564 42.6602 11.5827 42.8468 11.62C43.0428 11.6573 43.2015 11.7647 43.3228 11.942C43.4535 12.1193 43.5188 12.4227 43.5188 12.852C43.5188 13.272 43.4535 13.5707 43.3228 13.748C43.2015 13.9253 43.0428 14.0327 42.8468 14.07C42.6508 14.1073 42.4455 14.126 42.2308 14.126H37.0788ZM45.3604 14.126C44.9497 14.126 44.6557 14.0653 44.4784 13.944C44.301 13.8133 44.1937 13.65 44.1564 13.454C44.119 13.258 44.1004 13.0527 44.1004 12.838V5.572C44.1004 5.36667 44.119 5.17067 44.1564 4.984C44.1937 4.79733 44.301 4.64333 44.4784 4.522C44.665 4.40067 44.9684 4.34 45.3884 4.34C45.799 4.34 46.079 4.39133 46.2284 4.494C46.3777 4.59667 46.513 4.72733 46.6344 4.886L50.1344 9.59V5.572C50.1344 5.36667 50.153 5.17067 50.1904 4.984C50.237 4.79733 50.349 4.64333 50.5264 4.522C50.7037 4.40067 51.0024 4.34 51.4224 4.34C51.8517 4.34 52.1504 4.40533 52.3184 4.536C52.4957 4.65733 52.603 4.816 52.6404 5.012C52.6777 5.208 52.6964 5.41333 52.6964 5.628V12.852C52.6964 13.0573 52.6777 13.258 52.6404 13.454C52.603 13.65 52.4957 13.8133 52.3184 13.944C52.141 14.0653 51.8377 14.126 51.4084 14.126C51.091 14.126 50.8484 14.098 50.6804 14.042C50.5217 13.9953 50.3864 13.8973 50.2744 13.748L46.6484 8.96V12.852C46.6484 13.0573 46.6297 13.258 46.5924 13.454C46.555 13.65 46.4477 13.8133 46.2704 13.944C46.093 14.0653 45.7897 14.126 45.3604 14.126ZM60.7733 4.312C60.9506 4.312 61.1186 4.326 61.2773 4.354C61.4359 4.382 61.5666 4.47067 61.6693 4.62C61.7813 4.76933 61.8373 5.026 61.8373 5.39C61.8373 5.74467 61.7813 6.00133 61.6693 6.16C61.5666 6.30933 61.4313 6.398 61.2633 6.426C61.1046 6.454 60.9366 6.468 60.7593 6.468H58.8273V12.88C58.8273 13.0853 58.8086 13.286 58.7713 13.482C58.7339 13.6687 58.6266 13.8227 58.4493 13.944C58.2813 14.0653 57.9826 14.126 57.5533 14.126C57.1426 14.126 56.8486 14.0653 56.6713 13.944C56.4939 13.8133 56.3866 13.6547 56.3493 13.468C56.3213 13.272 56.3073 13.0713 56.3073 12.866V6.468H54.3613C54.1933 6.468 54.0253 6.454 53.8573 6.426C53.6986 6.38867 53.5633 6.29533 53.4513 6.146C53.3486 5.99667 53.2973 5.74 53.2973 5.376C53.2973 5.02133 53.3486 4.76933 53.4513 4.62C53.5633 4.47067 53.7033 4.382 53.8713 4.354C54.0393 4.326 54.2073 4.312 54.3753 4.312H60.7733Z"/>
</mask>
<path d="M4.60003 14.266C4.0307 14.266 3.54536 14.196 3.14403 14.056C2.75203 13.916 2.43003 13.7527 2.17803 13.566C1.92603 13.37 1.7347 13.1927 1.60403 13.034C1.47336 12.8753 1.39403 12.7773 1.36603 12.74C1.17936 12.5067 1.0627 12.2967 1.01603 12.11C0.978697 11.9233 1.0067 11.7367 1.10003 11.55C1.2027 11.3633 1.3707 11.158 1.60403 10.934C1.8187 10.7287 2.0287 10.6167 2.23403 10.598C2.43936 10.57 2.64003 10.612 2.83603 10.724C3.04136 10.836 3.23736 10.9993 3.42403 11.214C3.64803 11.466 3.83936 11.6387 3.99803 11.732C4.1567 11.816 4.3387 11.858 4.54403 11.858C4.79603 11.858 5.00136 11.83 5.16003 11.774C5.3187 11.7087 5.43536 11.6153 5.51003 11.494C5.5847 11.3633 5.62203 11.2 5.62203 11.004C5.62203 10.8453 5.5427 10.724 5.38403 10.64C5.22536 10.5467 5.01536 10.4673 4.75403 10.402C4.50203 10.3367 4.21736 10.2667 3.90003 10.192C3.5827 10.108 3.27003 10.0007 2.96203 9.87C2.77536 9.79533 2.59336 9.702 2.41603 9.59C2.2387 9.478 2.0707 9.352 1.91203 9.212C1.7627 9.06267 1.63203 8.89 1.52003 8.694C1.40803 8.48867 1.31936 8.26 1.25403 8.008C1.19803 7.756 1.17003 7.47133 1.17003 7.154C1.17003 6.58467 1.31003 6.076 1.59003 5.628C1.87936 5.18 2.27136 4.82533 2.76603 4.564C3.27003 4.30267 3.83936 4.172 4.47403 4.172C4.93136 4.172 5.32336 4.20933 5.65003 4.284C5.9767 4.35867 6.2427 4.44733 6.44803 4.55C6.6627 4.65267 6.82603 4.75067 6.93803 4.844C7.05003 4.928 7.12003 4.984 7.14803 5.012C7.45603 5.292 7.62403 5.53467 7.65203 5.74C7.68003 5.936 7.56803 6.22067 7.31603 6.594C7.03603 6.99533 6.7607 7.224 6.49003 7.28C6.21936 7.32667 5.9067 7.238 5.55203 7.014C5.47736 6.958 5.4027 6.89733 5.32803 6.832C5.25336 6.75733 5.1507 6.69667 5.02003 6.65C4.8987 6.594 4.71203 6.566 4.46003 6.566C4.3667 6.566 4.27336 6.58467 4.18003 6.622C4.0867 6.65 4.00736 6.692 3.94203 6.748C3.8767 6.79467 3.8207 6.85533 3.77403 6.93C3.7367 7.00467 3.71803 7.084 3.71803 7.168C3.71803 7.364 3.7927 7.518 3.94203 7.63C4.09136 7.73267 4.28736 7.812 4.53003 7.868C4.78203 7.924 5.05736 7.98 5.35603 8.036C5.6547 8.092 5.95803 8.16667 6.26603 8.26C6.51803 8.344 6.7607 8.45133 6.99403 8.582C7.22736 8.71267 7.4327 8.88067 7.61003 9.086C7.78736 9.29133 7.92736 9.548 8.03003 9.856C8.14203 10.1547 8.19803 10.5233 8.19803 10.962C8.19803 11.5687 8.08136 12.0867 7.84803 12.516C7.6147 12.936 7.31136 13.2767 6.93803 13.538C6.57403 13.79 6.18203 13.972 5.76203 14.084C5.35136 14.2053 4.96403 14.266 4.60003 14.266ZM15.3827 4.312C15.56 4.312 15.728 4.326 15.8867 4.354C16.0453 4.382 16.176 4.47067 16.2787 4.62C16.3907 4.76933 16.4467 5.026 16.4467 5.39C16.4467 5.74467 16.3907 6.00133 16.2787 6.16C16.176 6.30933 16.0407 6.398 15.8727 6.426C15.714 6.454 15.546 6.468 15.3687 6.468H13.4367V12.88C13.4367 13.0853 13.418 13.286 13.3807 13.482C13.3433 13.6687 13.236 13.8227 13.0587 13.944C12.8907 14.0653 12.592 14.126 12.1627 14.126C11.752 14.126 11.458 14.0653 11.2807 13.944C11.1033 13.8133 10.996 13.6547 10.9587 13.468C10.9307 13.272 10.9167 13.0713 10.9167 12.866V6.468H8.97066C8.80266 6.468 8.63466 6.454 8.46666 6.426C8.30799 6.38867 8.17266 6.29533 8.06066 6.146C7.95799 5.99667 7.90666 5.74 7.90666 5.376C7.90666 5.02133 7.95799 4.76933 8.06066 4.62C8.17266 4.47067 8.31266 4.382 8.48066 4.354C8.64866 4.326 8.81666 4.312 8.98466 4.312H15.3827ZM21.3557 14.28C20.6464 14.28 20.0211 14.14 19.4797 13.86C18.9477 13.5707 18.4997 13.1927 18.1357 12.726C17.7717 12.2593 17.4964 11.746 17.3097 11.186C17.1324 10.626 17.0437 10.0707 17.0437 9.52V5.6C17.0437 5.38533 17.0624 5.18 17.0997 4.984C17.1371 4.788 17.2444 4.62933 17.4217 4.508C17.5991 4.37733 17.9024 4.312 18.3317 4.312C18.7611 4.312 19.0644 4.37733 19.2417 4.508C19.4191 4.62933 19.5264 4.788 19.5637 4.984C19.6011 5.18 19.6197 5.39 19.6197 5.614V9.52C19.6197 9.828 19.6711 10.15 19.7737 10.486C19.8764 10.822 20.0537 11.1113 20.3057 11.354C20.5671 11.5873 20.9311 11.704 21.3977 11.704C21.7524 11.704 22.0604 11.6153 22.3217 11.438C22.5831 11.2513 22.7837 10.9947 22.9237 10.668C23.0731 10.332 23.1477 9.94467 23.1477 9.506V5.53C23.1477 5.32467 23.1664 5.13333 23.2037 4.956C23.2504 4.76933 23.3624 4.61533 23.5397 4.494C23.7171 4.37267 24.0157 4.312 24.4357 4.312C24.8651 4.312 25.1637 4.37733 25.3317 4.508C25.5091 4.63867 25.6164 4.802 25.6537 4.998C25.6911 5.194 25.7097 5.39933 25.7097 5.614V9.548C25.7097 10.108 25.6164 10.668 25.4297 11.228C25.2431 11.7787 24.9631 12.2873 24.5897 12.754C24.2257 13.2113 23.7731 13.58 23.2317 13.86C22.6904 14.14 22.0651 14.28 21.3557 14.28ZM27.765 14.112C27.3637 14.112 27.0743 14.0513 26.897 13.93C26.7197 13.8087 26.6077 13.65 26.561 13.454C26.5143 13.258 26.491 13.048 26.491 12.824V5.586C26.491 5.38067 26.5097 5.18 26.547 4.984C26.5843 4.788 26.6917 4.62933 26.869 4.508C27.0463 4.37733 27.3497 4.31667 27.779 4.326H30.187C30.8497 4.326 31.475 4.452 32.063 4.704C32.651 4.956 33.169 5.306 33.617 5.754C34.0743 6.19267 34.429 6.706 34.681 7.294C34.9423 7.882 35.073 8.50733 35.073 9.17C35.073 9.85133 34.9423 10.4907 34.681 11.088C34.429 11.6853 34.0743 12.2127 33.617 12.67C33.169 13.118 32.6463 13.4727 32.049 13.734C31.461 13.986 30.8263 14.112 30.145 14.112H27.765ZM29.053 11.55H30.187C30.607 11.55 30.9943 11.4473 31.349 11.242C31.7037 11.0273 31.9837 10.7473 32.189 10.402C32.4037 10.0473 32.511 9.65533 32.511 9.226C32.511 8.79667 32.4037 8.40467 32.189 8.05C31.9837 7.69533 31.7037 7.41533 31.349 7.21C30.9943 6.99533 30.6023 6.888 30.173 6.888H29.053V11.55ZM37.0788 14.126C36.6588 14.126 36.3602 14.0653 36.1828 13.944C36.0055 13.8133 35.8982 13.65 35.8608 13.454C35.8235 13.2487 35.8048 13.0433 35.8048 12.838V5.6C35.8048 5.11467 35.8982 4.78333 36.0848 4.606C36.2808 4.41933 36.6262 4.326 37.1208 4.326H42.2448C42.4595 4.326 42.6602 4.34467 42.8468 4.382C43.0428 4.41933 43.2015 4.52667 43.3228 4.704C43.4535 4.88133 43.5188 5.18467 43.5188 5.614C43.5188 6.034 43.4535 6.33267 43.3228 6.51C43.2015 6.68733 43.0428 6.79467 42.8468 6.832C42.6508 6.86933 42.4455 6.888 42.2308 6.888H38.3668V8.134H40.9568C41.1715 8.134 41.3628 8.15267 41.5308 8.19C41.6988 8.218 41.8342 8.30667 41.9368 8.456C42.0395 8.60533 42.0908 8.86667 42.0908 9.24C42.0908 9.59467 42.0395 9.85133 41.9368 10.01C41.8342 10.1593 41.6942 10.248 41.5168 10.276C41.3395 10.304 41.1435 10.318 40.9288 10.318H38.3668V11.564H42.2448C42.4595 11.564 42.6602 11.5827 42.8468 11.62C43.0428 11.6573 43.2015 11.7647 43.3228 11.942C43.4535 12.1193 43.5188 12.4227 43.5188 12.852C43.5188 13.272 43.4535 13.5707 43.3228 13.748C43.2015 13.9253 43.0428 14.0327 42.8468 14.07C42.6508 14.1073 42.4455 14.126 42.2308 14.126H37.0788ZM45.3604 14.126C44.9497 14.126 44.6557 14.0653 44.4784 13.944C44.301 13.8133 44.1937 13.65 44.1564 13.454C44.119 13.258 44.1004 13.0527 44.1004 12.838V5.572C44.1004 5.36667 44.119 5.17067 44.1564 4.984C44.1937 4.79733 44.301 4.64333 44.4784 4.522C44.665 4.40067 44.9684 4.34 45.3884 4.34C45.799 4.34 46.079 4.39133 46.2284 4.494C46.3777 4.59667 46.513 4.72733 46.6344 4.886L50.1344 9.59V5.572C50.1344 5.36667 50.153 5.17067 50.1904 4.984C50.237 4.79733 50.349 4.64333 50.5264 4.522C50.7037 4.40067 51.0024 4.34 51.4224 4.34C51.8517 4.34 52.1504 4.40533 52.3184 4.536C52.4957 4.65733 52.603 4.816 52.6404 5.012C52.6777 5.208 52.6964 5.41333 52.6964 5.628V12.852C52.6964 13.0573 52.6777 13.258 52.6404 13.454C52.603 13.65 52.4957 13.8133 52.3184 13.944C52.141 14.0653 51.8377 14.126 51.4084 14.126C51.091 14.126 50.8484 14.098 50.6804 14.042C50.5217 13.9953 50.3864 13.8973 50.2744 13.748L46.6484 8.96V12.852C46.6484 13.0573 46.6297 13.258 46.5924 13.454C46.555 13.65 46.4477 13.8133 46.2704 13.944C46.093 14.0653 45.7897 14.126 45.3604 14.126ZM60.7733 4.312C60.9506 4.312 61.1186 4.326 61.2773 4.354C61.4359 4.382 61.5666 4.47067 61.6693 4.62C61.7813 4.76933 61.8373 5.026 61.8373 5.39C61.8373 5.74467 61.7813 6.00133 61.6693 6.16C61.5666 6.30933 61.4313 6.398 61.2633 6.426C61.1046 6.454 60.9366 6.468 60.7593 6.468H58.8273V12.88C58.8273 13.0853 58.8086 13.286 58.7713 13.482C58.7339 13.6687 58.6266 13.8227 58.4493 13.944C58.2813 14.0653 57.9826 14.126 57.5533 14.126C57.1426 14.126 56.8486 14.0653 56.6713 13.944C56.4939 13.8133 56.3866 13.6547 56.3493 13.468C56.3213 13.272 56.3073 13.0713 56.3073 12.866V6.468H54.3613C54.1933 6.468 54.0253 6.454 53.8573 6.426C53.6986 6.38867 53.5633 6.29533 53.4513 6.146C53.3486 5.99667 53.2973 5.74 53.2973 5.376C53.2973 5.02133 53.3486 4.76933 53.4513 4.62C53.5633 4.47067 53.7033 4.382 53.8713 4.354C54.0393 4.326 54.2073 4.312 54.3753 4.312H60.7733Z" fill="#695CAC"/>
<path d="M3.14403 14.056L2.80768 14.9978L2.81466 15.0002L3.14403 14.056ZM2.17803 13.566L1.56409 14.3554L1.57336 14.3626L1.5828 14.3696L2.17803 13.566ZM1.60403 13.034L2.37596 12.3983H2.37596L1.60403 13.034ZM1.36603 12.74L2.16603 12.14L2.15666 12.1275L2.1469 12.1153L1.36603 12.74ZM1.01603 12.11L0.0354496 12.3061L0.0401164 12.3294L0.0458878 12.3525L1.01603 12.11ZM1.10003 11.55L0.223814 11.0681L0.214369 11.0853L0.205603 11.1028L1.10003 11.55ZM1.60403 10.934L0.912807 10.2114L0.911498 10.2126L1.60403 10.934ZM2.23403 10.598L2.32457 11.5939L2.34691 11.5919L2.36914 11.5888L2.23403 10.598ZM2.83603 10.724L2.33989 11.5922L2.34849 11.5972L2.35718 11.6019L2.83603 10.724ZM3.42403 11.214L2.66938 11.8702L2.67662 11.8784L3.42403 11.214ZM3.99803 11.732L3.49101 12.5939L3.51033 12.6053L3.53014 12.6158L3.99803 11.732ZM5.16003 11.774L5.49285 12.717L5.51705 12.7084L5.54078 12.6987L5.16003 11.774ZM5.51003 11.494L6.36169 12.0181L6.37021 12.0043L6.37827 11.9901L5.51003 11.494ZM5.38403 10.64L4.87701 11.5019L4.89633 11.5133L4.91614 11.5238L5.38403 10.64ZM4.75403 10.402L4.50306 11.37L4.51149 11.3721L4.75403 10.402ZM3.90003 10.192L3.64414 11.1587L3.65752 11.1622L3.67099 11.1654L3.90003 10.192ZM2.96203 9.87L3.35258 8.94942L3.34304 8.94537L3.33342 8.94152L2.96203 9.87ZM2.41603 9.59L2.95002 8.74451H2.95002L2.41603 9.59ZM1.91203 9.212L1.20492 9.91911L1.227 9.94118L1.25041 9.96184L1.91203 9.212ZM1.52003 8.694L0.642135 9.17285L0.646875 9.18154L0.651787 9.19014L1.52003 8.694ZM1.25403 8.008L0.277843 8.22493L0.28164 8.24202L0.286033 8.25896L1.25403 8.008ZM1.59003 5.628L0.749991 5.08547L0.745965 5.09171L0.742032 5.098L1.59003 5.628ZM2.76603 4.564L2.3057 3.67622L2.29891 3.67981L2.76603 4.564ZM5.65003 4.284L5.42721 5.25886H5.42721L5.65003 4.284ZM6.44803 4.55L6.00082 5.44443L6.00866 5.44835L6.01658 5.45213L6.44803 4.55ZM6.93803 4.844L6.29785 5.61222L6.31753 5.62862L6.33803 5.644L6.93803 4.844ZM7.14803 5.012L6.44092 5.7191L6.45775 5.73593L6.47536 5.75194L7.14803 5.012ZM7.65203 5.74L6.66118 5.87512L6.66208 5.88142L7.65203 5.74ZM7.31603 6.594L8.13616 7.16618L8.14057 7.15986L8.14488 7.15347L7.31603 6.594ZM6.49003 7.28L6.65994 8.26546L6.67634 8.26263L6.69264 8.25926L6.49003 7.28ZM5.55203 7.014L4.95203 7.814L4.98412 7.83807L5.01804 7.85949L5.55203 7.014ZM5.32803 6.832L4.62092 7.5391L4.64447 7.56265L4.66953 7.58458L5.32803 6.832ZM5.02003 6.65L4.60097 7.55796L4.64158 7.5767L4.68369 7.59174L5.02003 6.65ZM4.18003 6.622L4.46737 7.57983L4.51005 7.56702L4.55142 7.55048L4.18003 6.622ZM3.94203 6.748L4.52327 7.56173L4.55925 7.53603L4.59282 7.50725L3.94203 6.748ZM3.77403 6.93L2.92603 6.4L2.90085 6.44029L2.8796 6.48279L3.77403 6.93ZM3.94203 7.63L3.34203 8.43L3.35852 8.44237L3.3755 8.45404L3.94203 7.63ZM4.53003 7.868L4.30516 8.84242L4.3131 8.84419L4.53003 7.868ZM5.35603 8.036L5.54032 7.05313H5.54032L5.35603 8.036ZM6.26603 8.26L6.58226 7.31132L6.56921 7.30697L6.55604 7.30298L6.26603 8.26ZM6.99403 8.582L7.48263 7.70949H7.48263L6.99403 8.582ZM7.61003 9.086L8.36685 8.43238L8.36685 8.43238L7.61003 9.086ZM8.03003 9.856L7.08135 10.1722L7.0872 10.1898L7.0937 10.2071L8.03003 9.856ZM7.84803 12.516L8.72223 13.0017L8.72666 12.9935L7.84803 12.516ZM6.93803 13.538L7.50725 14.3602L7.51149 14.3572L6.93803 13.538ZM5.76203 14.084L5.50437 13.1178L5.49148 13.1212L5.47868 13.125L5.76203 14.084ZM4.60003 14.266V13.266C4.1072 13.266 3.73975 13.2047 3.4734 13.1118L3.14403 14.056L2.81466 15.0002C3.35098 15.1873 3.9542 15.266 4.60003 15.266V14.266ZM3.14403 14.056L3.48037 13.1143C3.15265 12.9972 2.92522 12.875 2.77326 12.7624L2.17803 13.566L1.5828 14.3696C1.93484 14.6303 2.35141 14.8348 2.80769 14.9977L3.14403 14.056ZM2.17803 13.566L2.79197 12.7766C2.56995 12.604 2.44152 12.4779 2.37596 12.3983L1.60403 13.034L0.8321 13.6697C1.02787 13.9074 1.28211 14.136 1.56409 14.3554L2.17803 13.566ZM1.60403 13.034L2.37596 12.3983C2.31145 12.32 2.26094 12.2582 2.22378 12.2123C2.20518 12.1893 2.1908 12.1714 2.18015 12.158C2.16849 12.1433 2.16488 12.1385 2.16603 12.14L1.36603 12.74L0.56603 13.34C0.610959 13.3999 0.707759 13.5187 0.8321 13.6697L1.60403 13.034ZM1.36603 12.74L2.1469 12.1153C2.08045 12.0322 2.03826 11.9679 2.01269 11.9219C1.98681 11.8753 1.9838 11.858 1.98617 11.8675L1.01603 12.11L0.0458878 12.3525C0.141371 12.7345 0.353274 13.0748 0.585162 13.3647L1.36603 12.74ZM1.01603 12.11L1.99661 11.9139C2.00044 11.933 2.00128 11.9562 1.99797 11.9783C1.99482 11.9993 1.98988 12.0064 1.99446 11.9972L1.10003 11.55L0.205603 11.1028C0.0229859 11.468 -0.0497529 11.8801 0.0354496 12.3061L1.01603 12.11ZM1.10003 11.55L1.97625 12.0319C2.01184 11.9672 2.10252 11.8417 2.29656 11.6554L1.60403 10.934L0.911498 10.2126C0.638871 10.4743 0.393553 10.7595 0.223814 11.0681L1.10003 11.55ZM1.60403 10.934L2.29525 11.6566C2.35224 11.6021 2.38563 11.5823 2.39312 11.5784C2.39831 11.5756 2.37383 11.5894 2.32457 11.5939L2.23403 10.598L2.14349 9.60211C1.63216 9.64859 1.22092 9.91665 0.912808 10.2114L1.60403 10.934ZM2.23403 10.598L2.36914 11.5888C2.36543 11.5893 2.35975 11.5898 2.35269 11.5895C2.34562 11.5893 2.33908 11.5884 2.33367 11.5873C2.32832 11.5862 2.32573 11.5851 2.32624 11.5853C2.32684 11.5856 2.33138 11.5874 2.33989 11.5922L2.83603 10.724L3.33217 9.85576C2.96311 9.64487 2.54224 9.54672 2.09892 9.60717L2.23403 10.598ZM2.83603 10.724L2.35718 11.6019C2.43831 11.6461 2.54442 11.7264 2.66942 11.8702L3.42403 11.214L4.17864 10.5578C3.93031 10.2722 3.64442 10.0259 3.31488 9.8461L2.83603 10.724ZM3.42403 11.214L2.67662 11.8784C2.92244 12.1549 3.19653 12.4207 3.49101 12.5939L3.99803 11.732L4.50505 10.8701C4.50509 10.8701 4.49618 10.8648 4.47799 10.851C4.46003 10.8373 4.43592 10.8176 4.40549 10.7901C4.34386 10.7345 4.26603 10.6561 4.17144 10.5496L3.42403 11.214ZM3.99803 11.732L3.53014 12.6158C3.8525 12.7864 4.19923 12.858 4.54403 12.858V11.858V10.858C4.50964 10.858 4.48877 10.8545 4.47839 10.8521C4.47313 10.8509 4.46991 10.8498 4.4683 10.8492C4.46672 10.8486 4.46604 10.8483 4.46592 10.8482L3.99803 11.732ZM4.54403 11.858V12.858C4.85866 12.858 5.1881 12.8246 5.49285 12.717L5.16003 11.774L4.82721 10.831C4.81463 10.8354 4.7334 10.858 4.54403 10.858V11.858ZM5.16003 11.774L5.54078 12.6987C5.85392 12.5697 6.15519 12.3537 6.36169 12.0181L5.51003 11.494L4.65837 10.9699C4.68425 10.9278 4.71472 10.8958 4.74184 10.8741C4.76762 10.8535 4.78363 10.8475 4.77928 10.8493L5.16003 11.774ZM5.51003 11.494L6.37827 11.9901C6.56157 11.6694 6.62203 11.3228 6.62203 11.004H5.62203H4.62203C4.62203 11.0393 4.61859 11.0532 4.61917 11.0507C4.61996 11.0472 4.62516 11.027 4.64179 10.9979L5.51003 11.494ZM5.62203 11.004H6.62203C6.62203 10.7494 6.55555 10.4854 6.3995 10.2468C6.24766 10.0145 6.04557 9.85873 5.85192 9.75621L5.38403 10.64L4.91614 11.5238C4.88116 11.5053 4.79806 11.4521 4.72556 11.3412C4.64885 11.2239 4.62203 11.0999 4.62203 11.004H5.62203ZM5.38403 10.64L5.89105 9.77806C5.6213 9.61939 5.31197 9.51071 4.99657 9.43186L4.75403 10.402L4.51149 11.3721C4.71875 11.424 4.82943 11.4739 4.87701 11.5019L5.38403 10.64ZM4.75403 10.402L5.00499 9.434C4.74416 9.36638 4.452 9.29457 4.12907 9.21858L3.90003 10.192L3.67099 11.1654C3.98273 11.2388 4.2599 11.307 4.50307 11.37L4.75403 10.402ZM3.90003 10.192L4.15592 9.22529C3.88539 9.15368 3.61769 9.06189 3.35258 8.94942L2.96203 9.87L2.57148 10.7906C2.92237 10.9394 3.28001 11.0623 3.64414 11.1587L3.90003 10.192ZM2.96203 9.87L3.33342 8.94152C3.20576 8.89046 3.07802 8.82535 2.95002 8.74451L2.41603 9.59L1.88204 10.4355C2.10871 10.5786 2.34497 10.7002 2.59064 10.7985L2.96203 9.87ZM2.41603 9.59L2.95002 8.74451C2.81811 8.6612 2.69275 8.56724 2.57365 8.46216L1.91203 9.212L1.25041 9.96184C1.44865 10.1368 1.65928 10.2948 1.88204 10.4355L2.41603 9.59ZM1.91203 9.212L2.61914 8.50489C2.53683 8.42258 2.4592 8.32199 2.38827 8.19786L1.52003 8.694L0.651787 9.19014C0.804858 9.45801 0.988569 9.70275 1.20492 9.91911L1.91203 9.212ZM1.52003 8.694L2.39793 8.21515C2.32932 8.08938 2.26907 7.93849 2.22203 7.75704L1.25403 8.008L0.286033 8.25896C0.369658 8.58151 0.486737 8.88795 0.642135 9.17285L1.52003 8.694ZM1.25403 8.008L2.23022 7.79107C2.19316 7.62432 2.17003 7.41429 2.17003 7.154H1.17003H0.17003C0.17003 7.52837 0.2029 7.88768 0.277843 8.22493L1.25403 8.008ZM1.17003 7.154H2.17003C2.17003 6.75694 2.26509 6.43469 2.43803 6.158L1.59003 5.628L0.742032 5.098C0.354966 5.71731 0.17003 6.41239 0.17003 7.154H1.17003ZM1.59003 5.628L2.43007 6.17053C2.62181 5.87364 2.8823 5.63355 3.23315 5.44819L2.76603 4.564L2.29891 3.67981C1.66043 4.01712 1.13692 4.48636 0.749991 5.08547L1.59003 5.628ZM2.76603 4.564L3.22635 5.45175C3.57204 5.27251 3.98043 5.172 4.47403 5.172V4.172V3.172C3.6983 3.172 2.96802 3.33282 2.30571 3.67624L2.76603 4.564ZM4.47403 4.172V5.172C4.88153 5.172 5.19464 5.2057 5.42721 5.25886L5.65003 4.284L5.87286 3.30914C5.45208 3.21297 4.98119 3.172 4.47403 3.172V4.172ZM5.65003 4.284L5.42721 5.25886C5.70824 5.32309 5.89123 5.38963 6.00082 5.44443L6.44803 4.55L6.89525 3.65557C6.59417 3.50503 6.24515 3.39424 5.87285 3.30914L5.65003 4.284ZM6.44803 4.55L6.01658 5.45213C6.19711 5.53848 6.27684 5.59472 6.29785 5.61222L6.93803 4.844L7.57821 4.07578C7.37522 3.90661 7.12829 3.76686 6.87949 3.64787L6.44803 4.55ZM6.93803 4.844L6.33803 5.644C6.38975 5.68279 6.42614 5.71091 6.44983 5.72987C6.46162 5.7393 6.46725 5.74406 6.46836 5.745C6.47161 5.74779 6.45966 5.73784 6.44092 5.7191L7.14803 5.012L7.85514 4.3049C7.76664 4.2164 7.63357 4.11566 7.53803 4.044L6.93803 4.844ZM7.14803 5.012L6.47536 5.75194C6.59415 5.85993 6.65562 5.9339 6.68284 5.97321C6.69542 5.99139 6.6946 5.99348 6.68862 5.97982C6.68253 5.96589 6.66869 5.93007 6.6612 5.87511L7.65203 5.74L8.64286 5.60489C8.56381 5.02516 8.15427 4.5753 7.8207 4.27206L7.14803 5.012ZM7.65203 5.74L6.66208 5.88142C6.65122 5.80536 6.65814 5.7519 6.66171 5.73148C6.66528 5.71102 6.66772 5.71084 6.65846 5.73438C6.63853 5.78504 6.58958 5.88283 6.48718 6.03453L7.31603 6.594L8.14488 7.15347C8.29449 6.93183 8.42753 6.70063 8.5196 6.46662C8.60743 6.24339 8.69032 5.93694 8.64198 5.59858L7.65203 5.74ZM7.31603 6.594L6.4959 6.02182C6.38982 6.17387 6.30932 6.25677 6.26063 6.29721C6.21294 6.33681 6.22197 6.31428 6.28742 6.30074L6.49003 7.28L6.69264 8.25926C7.34678 8.12392 7.81277 7.6297 8.13616 7.16618L7.31603 6.594ZM6.49003 7.28L6.32012 6.29454C6.35689 6.2882 6.36387 6.29736 6.32535 6.28644C6.28347 6.27456 6.20454 6.24337 6.08602 6.16851L5.55203 7.014L5.01804 7.85949C5.47532 8.1483 6.04457 8.37156 6.65994 8.26546L6.49003 7.28ZM5.55203 7.014L6.15203 6.214C6.09866 6.17397 6.04348 6.12925 5.98654 6.07942L5.32803 6.832L4.66953 7.58458C4.76192 7.66542 4.85606 7.74202 4.95203 7.814L5.55203 7.014ZM5.32803 6.832L6.03514 6.12489C5.8283 5.91806 5.58456 5.78975 5.35637 5.70826L5.02003 6.65L4.68369 7.59174C4.69858 7.59706 4.69775 7.59819 4.6863 7.59143C4.67447 7.58443 4.65007 7.56825 4.62092 7.5391L5.32803 6.832ZM5.02003 6.65L5.43909 5.74204C5.11578 5.59282 4.75083 5.566 4.46003 5.566V6.566V7.566C4.55171 7.566 4.6096 7.57127 4.64069 7.57594C4.65542 7.57815 4.65898 7.57946 4.65366 7.57801C4.64865 7.57665 4.62952 7.57114 4.60097 7.55796L5.02003 6.65ZM4.46003 6.566V5.566C4.22996 5.566 4.01092 5.61261 3.80864 5.69352L4.18003 6.622L4.55142 7.55048C4.53581 7.55672 4.50344 7.566 4.46003 7.566V6.566ZM4.18003 6.622L3.89269 5.66417C3.68336 5.72697 3.47571 5.83062 3.29124 5.98875L3.94203 6.748L4.59282 7.50725C4.53902 7.55338 4.49003 7.57303 4.46737 7.57983L4.18003 6.622ZM3.94203 6.748L3.36079 5.93427C3.17891 6.06418 3.03542 6.22498 2.92603 6.4L3.77403 6.93L4.62203 7.46C4.60598 7.48568 4.57448 7.52515 4.52327 7.56173L3.94203 6.748ZM3.77403 6.93L2.8796 6.48279C2.77239 6.6972 2.71803 6.92976 2.71803 7.168H3.71803H4.71803C4.71803 7.23824 4.701 7.31213 4.66846 7.37721L3.77403 6.93ZM3.71803 7.168H2.71803C2.71803 7.66036 2.92653 8.11837 3.34203 8.43L3.94203 7.63L4.54203 6.83C4.58306 6.86077 4.63549 6.91512 4.67384 6.99423C4.71141 7.0717 4.71803 7.13686 4.71803 7.168H3.71803ZM3.94203 7.63L3.3755 8.45404C3.65912 8.64903 3.98289 8.76802 4.30517 8.84239L4.53003 7.868L4.75489 6.89361C4.59184 6.85598 4.52361 6.8163 4.50856 6.80596L3.94203 7.63ZM4.53003 7.868L4.3131 8.84419C4.57764 8.90297 4.86401 8.96117 5.17174 9.01887L5.35603 8.036L5.54032 7.05313C5.25072 6.99883 4.98643 6.94503 4.74696 6.89181L4.53003 7.868ZM5.35603 8.036L5.17174 9.01887C5.4327 9.0678 5.70074 9.13361 5.97602 9.21702L6.26603 8.26L6.55604 7.30298C6.21532 7.19973 5.87669 7.1162 5.54032 7.05313L5.35603 8.036ZM6.26603 8.26L5.9498 9.20868C6.14167 9.27264 6.32665 9.35439 6.50543 9.45451L6.99403 8.582L7.48263 7.70949C7.19474 7.54827 6.89439 7.41536 6.58226 7.31132L6.26603 8.26ZM6.99403 8.582L6.50543 9.45451C6.63582 9.52752 6.75075 9.62099 6.85321 9.73962L7.61003 9.086L8.36685 8.43238C8.11464 8.14035 7.81891 7.89781 7.48263 7.70949L6.99403 8.582ZM7.61003 9.086L6.85321 9.73962C6.93014 9.8287 7.01203 9.96429 7.08135 10.1722L8.03003 9.856L8.97871 9.53977C8.84269 9.13171 8.64459 8.75397 8.36685 8.43238L7.61003 9.086ZM8.03003 9.856L7.0937 10.2071C7.15105 10.36 7.19803 10.6014 7.19803 10.962H8.19803H9.19803C9.19803 10.4453 9.13301 9.94928 8.96636 9.50488L8.03003 9.856ZM8.19803 10.962H7.19803C7.19803 11.4416 7.10607 11.787 6.96941 12.0385L7.84803 12.516L8.72666 12.9935C9.05666 12.3863 9.19803 11.6958 9.19803 10.962H8.19803ZM7.84803 12.516L6.97387 12.0304C6.81008 12.3252 6.60693 12.5491 6.36457 12.7188L6.93803 13.538L7.51149 14.3572C8.01579 14.0042 8.41931 13.5468 8.72219 13.0016L7.84803 12.516ZM6.93803 13.538L6.36882 12.7158C6.09781 12.9034 5.81091 13.036 5.50437 13.1178L5.76203 14.084L6.01969 15.0502C6.55315 14.908 7.05025 14.6766 7.50724 14.3602L6.93803 13.538ZM5.76203 14.084L5.47868 13.125C5.14425 13.2238 4.85295 13.266 4.60003 13.266V14.266V15.266C5.07511 15.266 5.55848 15.1869 6.04538 15.043L5.76203 14.084ZM15.8867 4.354L15.7129 5.33878L15.7129 5.33878L15.8867 4.354ZM16.2787 4.62L15.4546 5.18653L15.4663 5.20351L15.4787 5.22L16.2787 4.62ZM16.2787 6.16L15.4616 5.58327L15.4546 5.59347L16.2787 6.16ZM15.8727 6.426L15.7082 5.43956L15.6989 5.44122L15.8727 6.426ZM13.4367 6.468V5.468H12.4367V6.468H13.4367ZM13.3807 13.482L14.3613 13.6781L14.363 13.6691L13.3807 13.482ZM13.0587 13.944L12.494 13.1187L12.4835 13.1259L12.4732 13.1333L13.0587 13.944ZM11.2807 13.944L10.6875 14.7491L10.7015 14.7594L10.716 14.7693L11.2807 13.944ZM10.9587 13.468L9.96871 13.6094L9.97263 13.6369L9.97808 13.6641L10.9587 13.468ZM10.9167 6.468H11.9167V5.468H10.9167V6.468ZM8.46666 6.426L8.23762 7.39942L8.26972 7.40697L8.30226 7.41239L8.46666 6.426ZM8.06066 6.146L7.23661 6.71253L7.24829 6.72951L7.26065 6.746L8.06066 6.146ZM8.06066 4.62L7.26065 4.02L7.24829 4.03649L7.23661 4.05347L8.06066 4.62ZM8.48066 4.354L8.64505 5.34039H8.64506L8.48066 4.354ZM15.3827 4.312V5.312C15.5075 5.312 15.617 5.32186 15.7129 5.33878L15.8867 4.354L16.0604 3.36922C15.839 3.33014 15.6125 3.312 15.3827 3.312V4.312ZM15.8867 4.354L15.7129 5.33878C15.6562 5.32879 15.5959 5.30547 15.5422 5.26898C15.4905 5.2339 15.4635 5.19945 15.4546 5.18653L16.2787 4.62L17.1027 4.05347C16.8689 3.71335 16.5172 3.44981 16.0604 3.36922L15.8867 4.354ZM16.2787 4.62L15.4787 5.22C15.4484 5.17969 15.4337 5.14793 15.4281 5.13448C15.4226 5.12113 15.4239 5.12051 15.4276 5.13767C15.4358 5.17499 15.4467 5.25442 15.4467 5.39H16.4467H17.4467C17.4467 4.98372 17.396 4.44317 17.0787 4.02L16.2787 4.62ZM16.4467 5.39H15.4467C15.4467 5.5188 15.4361 5.5965 15.4276 5.63533C15.4187 5.67639 15.4185 5.64445 15.4617 5.58332L16.2787 6.16L17.0956 6.73668C17.3904 6.31912 17.4467 5.8031 17.4467 5.39H16.4467ZM16.2787 6.16L15.4546 5.59347C15.4681 5.57392 15.4988 5.53696 15.5521 5.50204C15.6066 5.46633 15.6627 5.4472 15.7083 5.43961L15.8727 6.426L16.0371 7.41239C16.4913 7.33668 16.8572 7.08358 17.1027 6.72653L16.2787 6.16ZM15.8727 6.426L15.6989 5.44122C15.603 5.45814 15.4935 5.468 15.3687 5.468V6.468V7.468C15.5985 7.468 15.825 7.44986 16.0464 7.41078L15.8727 6.426ZM15.3687 6.468V5.468H13.4367V6.468V7.468H15.3687V6.468ZM13.4367 6.468H12.4367V12.88H13.4367H14.4367V6.468H13.4367ZM13.4367 12.88H12.4367C12.4367 13.0244 12.4236 13.1623 12.3983 13.2949L13.3807 13.482L14.363 13.6691C14.4124 13.4097 14.4367 13.1463 14.4367 12.88H13.4367ZM13.3807 13.482L12.4001 13.2859C12.408 13.2463 12.4256 13.2032 12.4518 13.1657C12.4765 13.1302 12.497 13.1166 12.494 13.1187L13.0587 13.944L13.6233 14.7693C13.986 14.5212 14.266 14.1545 14.3612 13.6781L13.3807 13.482ZM13.0587 13.944L12.4732 13.1333C12.5456 13.081 12.5797 13.0863 12.5096 13.1005C12.4463 13.1134 12.3353 13.126 12.1627 13.126V14.126V15.126C12.6178 15.126 13.2005 15.0751 13.6441 14.7547L13.0587 13.944ZM12.1627 14.126V13.126C12.0023 13.126 11.8976 13.1138 11.8362 13.1011C11.7712 13.0877 11.7903 13.081 11.8453 13.1187L11.2807 13.944L10.716 14.7693C11.1533 15.0685 11.706 15.126 12.1627 15.126V14.126ZM11.2807 13.944L11.8739 13.1389C11.8634 13.1312 11.8765 13.1387 11.8954 13.1667C11.9158 13.1967 11.9317 13.2341 11.9392 13.2719L10.9587 13.468L9.97808 13.6641C10.0718 14.133 10.3433 14.4955 10.6875 14.7491L11.2807 13.944ZM10.9587 13.468L11.9486 13.3266C11.9275 13.1791 11.9167 13.0258 11.9167 12.866H10.9167H9.91666C9.91666 13.1169 9.93377 13.3649 9.96871 13.6094L10.9587 13.468ZM10.9167 12.866H11.9167V6.468H10.9167H9.91666V12.866H10.9167ZM10.9167 6.468V5.468H8.97066V6.468V7.468H10.9167V6.468ZM8.97066 6.468V5.468C8.85849 5.468 8.74547 5.45868 8.63105 5.43961L8.46666 6.426L8.30226 7.41239C8.52384 7.44932 8.74682 7.468 8.97066 7.468V6.468ZM8.46666 6.426L8.69569 5.45258C8.73869 5.4627 8.7799 5.48135 8.81389 5.50479C8.82978 5.51574 8.8415 5.52597 8.84937 5.53369C8.85715 5.54132 8.86067 5.54602 8.86066 5.546L8.06066 6.146L7.26065 6.746C7.49171 7.05408 7.81799 7.30068 8.23762 7.39942L8.46666 6.426ZM8.06066 6.146L8.8847 5.57947C8.91224 5.61954 8.92455 5.6494 8.92828 5.65922C8.93205 5.66917 8.92989 5.66613 8.92574 5.64538C8.91689 5.60114 8.90666 5.51559 8.90666 5.376H7.90666H6.90666C6.90666 5.77353 6.95112 6.29727 7.23661 6.71253L8.06066 6.146ZM7.90666 5.376H8.90666C8.90666 5.24247 8.9167 5.1615 8.92503 5.1206C8.92892 5.10151 8.93082 5.0993 8.92691 5.1095C8.92301 5.11965 8.91097 5.14831 8.8847 5.18653L8.06066 4.62L7.23661 4.05347C6.953 4.466 6.90666 4.98123 6.90666 5.376H7.90666ZM8.06066 4.62L8.86066 5.22C8.85304 5.23015 8.82925 5.25811 8.78471 5.28632C8.73869 5.31546 8.68908 5.33306 8.64505 5.34039L8.48066 4.354L8.31626 3.36761C7.86919 3.44212 7.51078 3.6865 7.26065 4.02L8.06066 4.62ZM8.48066 4.354L8.64506 5.34039C8.75947 5.32132 8.87249 5.312 8.98466 5.312V4.312V3.312C8.76082 3.312 8.53784 3.33068 8.31626 3.36761L8.48066 4.354ZM8.98466 4.312V5.312H15.3827V4.312V3.312H8.98466V4.312ZM19.4797 13.86L19.002 14.7385L19.0111 14.7434L19.0203 14.7482L19.4797 13.86ZM18.1357 12.726L18.9242 12.111V12.111L18.1357 12.726ZM17.3097 11.186L16.3564 11.4879L16.3587 11.4951L16.361 11.5022L17.3097 11.186ZM17.0997 4.984L16.1174 4.79689L16.1174 4.79689L17.0997 4.984ZM17.4217 4.508L17.9864 5.33331L18.0009 5.32343L18.0149 5.31306L17.4217 4.508ZM19.2417 4.508L18.6485 5.31306L18.6626 5.32343L18.677 5.33331L19.2417 4.508ZM19.5637 4.984L18.5814 5.17111V5.17111L19.5637 4.984ZM19.7737 10.486L18.8174 10.7782V10.7782L19.7737 10.486ZM20.3057 11.354L19.6121 12.0743L19.6257 12.0874L19.6397 12.0999L20.3057 11.354ZM22.3217 11.438L22.8832 12.2655L22.8932 12.2587L22.903 12.2517L22.3217 11.438ZM22.9237 10.668L22.0098 10.2618L22.0046 10.2741L22.9237 10.668ZM23.2037 4.956L22.2336 4.71346L22.229 4.73165L22.2252 4.74999L23.2037 4.956ZM23.5397 4.494L22.975 3.66869H22.975L23.5397 4.494ZM25.3317 4.508L24.7178 5.29735L24.7281 5.30534L24.7385 5.31306L25.3317 4.508ZM25.6537 4.998L24.6714 5.18511V5.18511L25.6537 4.998ZM25.4297 11.228L26.3768 11.549L26.3784 11.5442L25.4297 11.228ZM24.5897 12.754L23.8089 12.1293L23.8073 12.1313L24.5897 12.754ZM23.2317 13.86L23.6912 14.7482V14.7482L23.2317 13.86ZM21.3557 14.28V13.28C20.78 13.28 20.3169 13.1672 19.9392 12.9718L19.4797 13.86L19.0203 14.7482C19.7253 15.1128 20.5128 15.28 21.3557 15.28V14.28ZM19.4797 13.86L19.9575 12.9815C19.5432 12.7562 19.2018 12.4669 18.9242 12.111L18.1357 12.726L17.3472 13.341C17.7976 13.9185 18.3523 14.3851 19.002 14.7385L19.4797 13.86ZM18.1357 12.726L18.9242 12.111C18.6301 11.7338 18.409 11.3215 18.2584 10.8698L17.3097 11.186L16.361 11.5022C16.5838 12.1705 16.9134 12.7848 17.3472 13.341L18.1357 12.726ZM17.3097 11.186L18.2631 10.8841C18.1146 10.4152 18.0437 9.96162 18.0437 9.52H17.0437H16.0437C16.0437 10.1797 16.1502 10.8368 16.3564 11.4879L17.3097 11.186ZM17.0437 9.52H18.0437V5.6H17.0437H16.0437V9.52H17.0437ZM17.0437 5.6H18.0437C18.0437 5.44341 18.0573 5.30098 18.0821 5.17111L17.0997 4.984L16.1174 4.79689C16.0675 5.05902 16.0437 5.32725 16.0437 5.6H17.0437ZM17.0997 4.984L18.0821 5.17111C18.0764 5.20102 18.0622 5.24033 18.0365 5.27831C18.0117 5.315 17.9889 5.33159 17.9864 5.33331L17.4217 4.508L16.857 3.68269C16.4802 3.94056 16.2082 4.32009 16.1174 4.79689L17.0997 4.984ZM17.4217 4.508L18.0149 5.31306C17.9531 5.3586 17.9268 5.35279 17.9928 5.33858C18.0546 5.32527 18.163 5.312 18.3317 5.312V4.312V3.312C17.8602 3.312 17.2775 3.37213 16.8285 3.70294L17.4217 4.508ZM18.3317 4.312V5.312C18.5004 5.312 18.6089 5.32527 18.6707 5.33858C18.7367 5.35279 18.7103 5.3586 18.6485 5.31306L19.2417 4.508L19.8349 3.70294C19.386 3.37213 18.8032 3.312 18.3317 3.312V4.312ZM19.2417 4.508L18.677 5.33331C18.6745 5.33159 18.6518 5.315 18.6269 5.27831C18.6013 5.24033 18.5871 5.20102 18.5814 5.17111L19.5637 4.984L20.5461 4.79689C20.4553 4.32009 20.1833 3.94056 19.8064 3.68269L19.2417 4.508ZM19.5637 4.984L18.5814 5.17111C18.6057 5.29846 18.6197 5.44527 18.6197 5.614H19.6197H20.6197C20.6197 5.33473 20.5965 5.06153 20.5461 4.79689L19.5637 4.984ZM19.6197 5.614H18.6197V9.52H19.6197H20.6197V5.614H19.6197ZM19.6197 9.52H18.6197C18.6197 9.93983 18.6898 10.3606 18.8174 10.7782L19.7737 10.486L20.7301 10.1938C20.6524 9.93942 20.6197 9.71617 20.6197 9.52H19.6197ZM19.7737 10.486L18.8174 10.7782C18.9695 11.2762 19.237 11.7131 19.6121 12.0743L20.3057 11.354L20.9994 10.6337C20.8705 10.5096 20.7833 10.3678 20.7301 10.1938L19.7737 10.486ZM20.3057 11.354L19.6397 12.0999C20.1379 12.5448 20.7683 12.704 21.3977 12.704V11.704V10.704C21.0938 10.704 20.9962 10.6299 20.9717 10.6081L20.3057 11.354ZM21.3977 11.704V12.704C21.9271 12.704 22.4363 12.5688 22.8832 12.2655L22.3217 11.438L21.7602 10.6105C21.6845 10.6619 21.5777 10.704 21.3977 10.704V11.704ZM22.3217 11.438L22.903 12.2517C23.3288 11.9476 23.6387 11.5383 23.8429 11.0619L22.9237 10.668L22.0046 10.2741C21.9288 10.451 21.8373 10.5551 21.7405 10.6243L22.3217 11.438ZM22.9237 10.668L23.8375 11.0741C24.0536 10.588 24.1477 10.058 24.1477 9.506H23.1477H22.1477C22.1477 9.83132 22.0925 10.076 22.0099 10.2619L22.9237 10.668ZM23.1477 9.506H24.1477V5.53H23.1477H22.1477V9.506H23.1477ZM23.1477 5.53H24.1477C24.1477 5.38492 24.1609 5.26335 24.1823 5.16201L23.2037 4.956L22.2252 4.74999C22.1719 5.00332 22.1477 5.26442 22.1477 5.53H23.1477ZM23.2037 4.956L24.1739 5.19853C24.1664 5.22837 24.1518 5.26078 24.1315 5.28867C24.1122 5.31513 24.0981 5.32365 24.1044 5.31931L23.5397 4.494L22.975 3.66869C22.6212 3.91083 22.3466 4.26132 22.2336 4.71346L23.2037 4.956ZM23.5397 4.494L24.1044 5.31931C24.0469 5.35869 24.0267 5.35152 24.0958 5.33749C24.1603 5.32439 24.2695 5.312 24.4357 5.312V4.312V3.312C23.9754 3.312 23.4148 3.3678 22.975 3.66869L23.5397 4.494ZM24.4357 4.312V5.312C24.605 5.312 24.7107 5.32536 24.768 5.3379C24.8307 5.3516 24.7914 5.3546 24.7178 5.29735L25.3317 4.508L25.9457 3.71865C25.4958 3.36872 24.8982 3.312 24.4357 3.312V4.312ZM25.3317 4.508L24.7385 5.31306C24.7439 5.31698 24.7286 5.30674 24.7095 5.27768C24.6895 5.24714 24.6768 5.2135 24.6714 5.18511L25.6537 4.998L26.6361 4.81089C26.5465 4.34062 26.2823 3.9663 25.9249 3.70294L25.3317 4.508ZM25.6537 4.998L24.6714 5.18511C24.6961 5.31498 24.7097 5.45741 24.7097 5.614H25.7097H26.7097C26.7097 5.34125 26.686 5.07302 26.6361 4.81089L25.6537 4.998ZM25.7097 5.614H24.7097V9.548H25.7097H26.7097V5.614H25.7097ZM25.7097 9.548H24.7097C24.7097 9.99482 24.6356 10.4482 24.4811 10.9118L25.4297 11.228L26.3784 11.5442C26.5972 10.8878 26.7097 10.2212 26.7097 9.548H25.7097ZM25.4297 11.228L24.4827 10.907C24.3344 11.3444 24.1116 11.7509 23.8089 12.1293L24.5897 12.754L25.3706 13.3787C25.8145 12.8238 26.1518 12.2129 26.3768 11.549L25.4297 11.228ZM24.5897 12.754L23.8073 12.1313C23.5348 12.4736 23.1939 12.7537 22.7723 12.9718L23.2317 13.86L23.6912 14.7482C24.3522 14.4063 24.9166 13.9491 25.3722 13.3767L24.5897 12.754ZM23.2317 13.86L22.7723 12.9718C22.3946 13.1672 21.9314 13.28 21.3557 13.28V14.28V15.28C22.1987 15.28 22.9862 15.1128 23.6912 14.7482L23.2317 13.86ZM26.897 13.93L26.3323 14.7553L26.897 13.93ZM26.561 13.454L25.5882 13.6856V13.6856L26.561 13.454ZM26.547 4.984L25.5647 4.79689V4.79689L26.547 4.984ZM26.869 4.508L27.4337 5.33331L27.4481 5.32343L27.4622 5.31306L26.869 4.508ZM27.779 4.326L27.7573 5.32576L27.7681 5.326H27.779V4.326ZM32.063 4.704L32.4569 3.78485V3.78485L32.063 4.704ZM33.617 5.754L32.9099 6.46111L32.9173 6.46847L32.9248 6.47568L33.617 5.754ZM34.681 7.294L33.7618 7.68795L33.7672 7.70014L34.681 7.294ZM34.681 11.088L33.7648 10.6871L33.7596 10.6993L34.681 11.088ZM33.617 12.67L32.9099 11.9629V11.9629L33.617 12.67ZM32.049 13.734L32.4429 14.6532L32.4498 14.6502L32.049 13.734ZM29.053 11.55H28.053V12.55H29.053V11.55ZM31.349 11.242L31.85 12.1074L31.8585 12.1025L31.8668 12.0975L31.349 11.242ZM32.189 10.402L31.3335 9.88418L31.3295 9.89092L32.189 10.402ZM32.189 8.05L31.3236 8.55104L31.3285 8.55947L31.3335 8.5678L32.189 8.05ZM31.349 7.21L30.8312 8.0655L30.8395 8.07055L30.848 8.07543L31.349 7.21ZM29.053 6.888V5.888H28.053V6.888H29.053ZM27.765 14.112V13.112C27.6106 13.112 27.5103 13.1 27.4522 13.0878C27.3911 13.075 27.4092 13.0688 27.4617 13.1047L26.897 13.93L26.3323 14.7553C26.7671 15.0528 27.3119 15.112 27.765 15.112V14.112ZM26.897 13.93L27.4617 13.1047C27.4608 13.1041 27.4774 13.1156 27.497 13.1433C27.5172 13.1719 27.5288 13.2012 27.5338 13.2224L26.561 13.454L25.5882 13.6856C25.6965 14.1403 25.9648 14.5038 26.3323 14.7553L26.897 13.93ZM26.561 13.454L27.5338 13.2224C27.5071 13.1102 27.491 12.9786 27.491 12.824H26.491H25.491C25.491 13.1174 25.5216 13.4058 25.5882 13.6856L26.561 13.454ZM26.491 12.824H27.491V5.586H26.491H25.491V12.824H26.491ZM26.491 5.586H27.491C27.491 5.44163 27.5041 5.30366 27.5293 5.17111L26.547 4.984L25.5647 4.79689C25.5152 5.05633 25.491 5.31971 25.491 5.586H26.491ZM26.547 4.984L27.5293 5.17111C27.5236 5.20102 27.5095 5.24033 27.4838 5.27831C27.459 5.315 27.4362 5.33159 27.4337 5.33331L26.869 4.508L26.3043 3.68269C25.9274 3.94056 25.6555 4.32009 25.5647 4.79689L26.547 4.984ZM26.869 4.508L27.4622 5.31306C27.3953 5.36234 27.3633 5.35754 27.4256 5.34508C27.484 5.33341 27.5898 5.32212 27.7573 5.32576L27.779 4.326L27.8007 3.32624C27.3287 3.31598 26.7348 3.36475 26.2758 3.70294L26.869 4.508ZM27.779 4.326V5.326H30.187V4.326V3.326H27.779V4.326ZM30.187 4.326V5.326C30.7192 5.326 31.21 5.42641 31.6691 5.62314L32.063 4.704L32.4569 3.78485C31.74 3.47759 30.9801 3.326 30.187 3.326V4.326ZM32.063 4.704L31.6691 5.62314C32.1413 5.82553 32.5527 6.10396 32.9099 6.46111L33.617 5.754L34.3241 5.04689C33.7853 4.50804 33.1607 4.08647 32.4569 3.78485L32.063 4.704ZM33.617 5.754L32.9248 6.47568C33.2843 6.82053 33.5622 7.22209 33.7619 7.68792L34.681 7.294L35.6001 6.90008C35.2958 6.18991 34.8644 5.56481 34.3092 5.03232L33.617 5.754ZM34.681 7.294L33.7672 7.70014C33.97 8.15642 34.073 8.64297 34.073 9.17H35.073H36.073C36.073 8.3717 35.9147 7.60758 35.5948 6.88786L34.681 7.294ZM35.073 9.17H34.073C34.073 9.71971 33.9684 10.2219 33.7648 10.6872L34.681 11.088L35.5972 11.4888C35.9163 10.7594 36.073 9.98295 36.073 9.17H35.073ZM34.681 11.088L33.7596 10.6993C33.5577 11.178 33.2757 11.5971 32.9099 11.9629L33.617 12.67L34.3241 13.3771C34.873 12.8282 35.3003 12.1927 35.6024 11.4767L34.681 11.088ZM33.617 12.67L32.9099 11.9629C32.5526 12.3201 32.1347 12.605 31.6482 12.8178L32.049 13.734L32.4498 14.6502C33.158 14.3403 33.7854 13.9159 34.3241 13.3771L33.617 12.67ZM32.049 13.734L31.6551 12.8149C31.1995 13.0101 30.6998 13.112 30.145 13.112V14.112V15.112C30.9528 15.112 31.7225 14.9619 32.4429 14.6531L32.049 13.734ZM30.145 14.112V13.112H27.765V14.112V15.112H30.145V14.112ZM29.053 11.55V12.55H30.187V11.55V10.55H29.053V11.55ZM30.187 11.55V12.55C30.7784 12.55 31.3392 12.4032 31.85 12.1074L31.349 11.242L30.848 10.3766C30.6495 10.4915 30.4356 10.55 30.187 10.55V11.55ZM31.349 11.242L31.8668 12.0975C32.3573 11.8006 32.7566 11.4041 33.0485 10.9131L32.189 10.402L31.3295 9.89092C31.2108 10.0905 31.0501 10.254 30.8312 10.3865L31.349 11.242ZM32.189 10.402L33.0445 10.9198C33.3572 10.4032 33.511 9.83107 33.511 9.226H32.511H31.511C31.511 9.47959 31.4502 9.69144 31.3335 9.8842L32.189 10.402ZM32.511 9.226H33.511C33.511 8.62093 33.3572 8.04877 33.0445 7.5322L32.189 8.05L31.3335 8.5678C31.4502 8.76056 31.511 8.97241 31.511 9.226H32.511ZM32.189 8.05L33.0544 7.54896C32.7615 7.04309 32.3559 6.63745 31.85 6.34457L31.349 7.21L30.848 8.07543C31.0514 8.19322 31.2058 8.34758 31.3236 8.55104L32.189 8.05ZM31.349 7.21L31.8668 6.3545C31.3502 6.04184 30.7781 5.888 30.173 5.888V6.888V7.888C30.4266 7.888 30.6384 7.94883 30.8312 8.0655L31.349 7.21ZM30.173 6.888V5.888H29.053V6.888V7.888H30.173V6.888ZM29.053 6.888H28.053V11.55H29.053H30.053V6.888H29.053ZM36.1828 13.944L35.5896 14.7491L35.6037 14.7594L35.6181 14.7693L36.1828 13.944ZM35.8608 13.454L34.8769 13.6329L34.8785 13.6411L35.8608 13.454ZM36.0848 4.606L36.7736 5.331L36.7745 5.33014L36.0848 4.606ZM42.8468 4.382L42.6507 5.36262L42.6597 5.36434L42.8468 4.382ZM43.3228 4.704L42.4975 5.26868L42.5074 5.28312L42.5178 5.2972L43.3228 4.704ZM43.3228 6.51L42.5178 5.9168L42.5074 5.93088L42.4975 5.94532L43.3228 6.51ZM42.8468 6.832L42.6597 5.84966V5.84966L42.8468 6.832ZM38.3668 6.888V5.888H37.3668V6.888H38.3668ZM38.3668 8.134H37.3668V9.134H38.3668V8.134ZM41.5308 8.19L41.3139 9.16619L41.34 9.17199L41.3664 9.17639L41.5308 8.19ZM41.9368 8.456L41.1128 9.02253V9.02253L41.9368 8.456ZM41.9368 10.01L42.7609 10.5765L42.7688 10.565L42.7764 10.5533L41.9368 10.01ZM41.5168 10.276L41.6728 11.2638V11.2638L41.5168 10.276ZM38.3668 10.318V9.318H37.3668V10.318H38.3668ZM38.3668 11.564H37.3668V12.564H38.3668V11.564ZM42.8468 11.62L42.6507 12.6006L42.6597 12.6023L42.8468 11.62ZM43.3228 11.942L42.4975 12.5067L42.5074 12.5211L42.5178 12.5352L43.3228 11.942ZM43.3228 13.748L42.5178 13.1548L42.5074 13.1689L42.4975 13.1833L43.3228 13.748ZM42.8468 14.07L42.6597 13.0877V13.0877L42.8468 14.07ZM37.0788 14.126V13.126C36.9126 13.126 36.8034 13.1136 36.7389 13.1005C36.6698 13.0865 36.6899 13.0793 36.7475 13.1187L36.1828 13.944L35.6181 14.7693C36.0579 15.0702 36.6185 15.126 37.0788 15.126V14.126ZM36.1828 13.944L36.776 13.1389C36.7707 13.135 36.7859 13.1453 36.805 13.1743C36.8251 13.2049 36.8378 13.2385 36.8432 13.2669L35.8608 13.454L34.8785 13.6411C34.9681 14.1114 35.2322 14.4857 35.5896 14.7491L36.1828 13.944ZM35.8608 13.454L36.8447 13.2751C36.8179 13.1278 36.8048 12.9824 36.8048 12.838H35.8048H34.8048C34.8048 13.1043 34.8291 13.3695 34.877 13.6329L35.8608 13.454ZM35.8048 12.838H36.8048V5.6H35.8048H34.8048V12.838H35.8048ZM35.8048 5.6H36.8048C36.8048 5.41469 36.8234 5.30822 36.8374 5.25864C36.8512 5.20963 36.8475 5.26077 36.7736 5.331L36.0848 4.606L35.3961 3.881C34.8943 4.35769 34.8048 5.05894 34.8048 5.6H35.8048ZM36.0848 4.606L36.7745 5.33014C36.7193 5.38268 36.69 5.37806 36.7517 5.36136C36.8139 5.34457 36.9306 5.326 37.1208 5.326V4.326V3.326C36.5607 3.326 35.8804 3.41974 35.3952 3.88186L36.0848 4.606ZM37.1208 4.326V5.326H42.2448V4.326V3.326H37.1208V4.326ZM42.2448 4.326V5.326C42.4018 5.326 42.5362 5.33968 42.6507 5.36258L42.8468 4.382L43.0429 3.40142C42.7841 3.34966 42.5171 3.326 42.2448 3.326V4.326ZM42.8468 4.382L42.6597 5.36434C42.6298 5.35864 42.5905 5.34448 42.5525 5.31878C42.5158 5.29396 42.4992 5.27119 42.4975 5.26868L43.3228 4.704L44.1481 4.13932C43.8903 3.76244 43.5107 3.49048 43.0339 3.39966L42.8468 4.382ZM43.3228 4.704L42.5178 5.2972C42.4722 5.23539 42.478 5.20907 42.4922 5.27506C42.5056 5.33688 42.5188 5.44529 42.5188 5.614H43.5188H44.5188C44.5188 5.14249 44.4587 4.55976 44.1279 4.1108L43.3228 4.704ZM43.5188 5.614H42.5188C42.5188 5.77676 42.5057 5.88071 42.4929 5.9393C42.4794 6.00126 42.4741 5.97604 42.5178 5.9168L43.3228 6.51L44.1279 7.1032C44.4569 6.65671 44.5188 6.08208 44.5188 5.614H43.5188ZM43.3228 6.51L42.4975 5.94532C42.4992 5.94281 42.5158 5.92004 42.5525 5.89522C42.5905 5.86952 42.6298 5.85536 42.6597 5.84966L42.8468 6.832L43.0339 7.81434C43.5107 7.72352 43.8903 7.45156 44.1481 7.07468L43.3228 6.51ZM42.8468 6.832L42.6597 5.84966C42.5299 5.8744 42.3874 5.888 42.2308 5.888V6.888V7.888C42.5036 7.888 42.7718 7.86427 43.0339 7.81434L42.8468 6.832ZM42.2308 6.888V5.888H38.3668V6.888V7.888H42.2308V6.888ZM38.3668 6.888H37.3668V8.134H38.3668H39.3668V6.888H38.3668ZM38.3668 8.134V9.134H40.9568V8.134V7.134H38.3668V8.134ZM40.9568 8.134V9.134C41.1156 9.134 41.2321 9.148 41.3139 9.16619L41.5308 8.19L41.7478 7.21381C41.4936 7.15733 41.2274 7.134 40.9568 7.134V8.134ZM41.5308 8.19L41.3664 9.17639C41.3209 9.1688 41.2648 9.14967 41.2103 9.11396C41.157 9.07904 41.1262 9.04208 41.1128 9.02253L41.9368 8.456L42.7609 7.88947C42.5154 7.53242 42.1495 7.27932 41.6952 7.20361L41.5308 8.19ZM41.9368 8.456L41.1128 9.02253C41.084 8.98063 41.0714 8.94956 41.0679 8.94012C41.0642 8.93045 41.0667 8.93434 41.0711 8.95675C41.0804 9.00432 41.0908 9.09442 41.0908 9.24H42.0908H43.0908C43.0908 8.83953 43.0481 8.30732 42.7609 7.88947L41.9368 8.456ZM42.0908 9.24H41.0908C41.0908 9.37298 41.0809 9.45675 41.0717 9.50238C41.0619 9.55142 41.0593 9.52545 41.0973 9.46675L41.9368 10.01L42.7764 10.5533C43.0412 10.144 43.0908 9.64386 43.0908 9.24H42.0908ZM41.9368 10.01L41.1128 9.44347C41.1308 9.4173 41.1653 9.37815 41.2198 9.34368C41.2744 9.30909 41.3261 9.29373 41.3609 9.28824L41.5168 10.276L41.6728 11.2638C42.1241 11.1925 42.5044 10.9496 42.7609 10.5765L41.9368 10.01ZM41.5168 10.276L41.3609 9.28824C41.2439 9.3067 41.101 9.318 40.9288 9.318V10.318V11.318C41.186 11.318 41.435 11.3013 41.6728 11.2638L41.5168 10.276ZM40.9288 10.318V9.318H38.3668V10.318V11.318H40.9288V10.318ZM38.3668 10.318H37.3668V11.564H38.3668H39.3668V10.318H38.3668ZM38.3668 11.564V12.564H42.2448V11.564V10.564H38.3668V11.564ZM42.2448 11.564V12.564C42.4018 12.564 42.5362 12.5777 42.6507 12.6006L42.8468 11.62L43.0429 10.6394C42.7841 10.5877 42.5171 10.564 42.2448 10.564V11.564ZM42.8468 11.62L42.6597 12.6023C42.6298 12.5966 42.5905 12.5825 42.5525 12.5568C42.5158 12.532 42.4992 12.5092 42.4975 12.5067L43.3228 11.942L44.1481 11.3773C43.8903 11.0004 43.5107 10.7285 43.0339 10.6377L42.8468 11.62ZM43.3228 11.942L42.5178 12.5352C42.4722 12.4734 42.478 12.4471 42.4922 12.5131C42.5056 12.5749 42.5188 12.6833 42.5188 12.852H43.5188H44.5188C44.5188 12.3805 44.4587 11.7978 44.1279 11.3488L43.3228 11.942ZM43.5188 12.852H42.5188C42.5188 13.0148 42.5057 13.1187 42.4929 13.1773C42.4794 13.2393 42.4741 13.214 42.5178 13.1548L43.3228 13.748L44.1279 14.3412C44.4569 13.8947 44.5188 13.3201 44.5188 12.852H43.5188ZM43.3228 13.748L42.4975 13.1833C42.4992 13.1808 42.5158 13.158 42.5525 13.1332C42.5905 13.1075 42.6298 13.0934 42.6597 13.0877L42.8468 14.07L43.0339 15.0523C43.5107 14.9615 43.8903 14.6896 44.1481 14.3127L43.3228 13.748ZM42.8468 14.07L42.6597 13.0877C42.5299 13.1124 42.3874 13.126 42.2308 13.126V14.126V15.126C42.5036 15.126 42.7718 15.1023 43.0339 15.0523L42.8468 14.07ZM42.2308 14.126V13.126H37.0788V14.126V15.126H42.2308V14.126ZM44.4784 13.944L43.8852 14.7491L43.8993 14.7594L43.9137 14.7693L44.4784 13.944ZM44.1564 13.454L43.174 13.6411L44.1564 13.454ZM44.1564 4.984L43.1758 4.78788V4.78788L44.1564 4.984ZM44.4784 4.522L43.9334 3.68356L43.9235 3.69001L43.9137 3.69669L44.4784 4.522ZM46.2284 4.494L45.6618 5.31804L45.6618 5.31804L46.2284 4.494ZM46.6344 4.886L47.4367 4.28901L47.4287 4.27855L46.6344 4.886ZM50.1344 9.59L49.3321 10.1869L51.1344 12.6092V9.59H50.1344ZM50.1904 4.984L49.2202 4.74146L49.2145 4.76455L49.2098 4.78788L50.1904 4.984ZM50.5264 4.522L49.9617 3.69669V3.69669L50.5264 4.522ZM52.3184 4.536L51.7044 5.32535L51.7285 5.34408L51.7537 5.36131L52.3184 4.536ZM52.6404 5.012L51.658 5.19911V5.19911L52.6404 5.012ZM52.6404 13.454L53.6227 13.6411L52.6404 13.454ZM52.3184 13.944L52.8831 14.7693L52.8975 14.7594L52.9116 14.7491L52.3184 13.944ZM50.6804 14.042L50.9966 13.0933L50.9797 13.0877L50.9625 13.0826L50.6804 14.042ZM50.2744 13.748L51.0744 13.148L51.0716 13.1443L50.2744 13.748ZM46.6484 8.96L47.4456 8.35628L45.6484 5.98315V8.96H46.6484ZM46.5924 13.454L47.5747 13.6411V13.6411L46.5924 13.454ZM46.2704 13.944L46.8351 14.7693L46.8495 14.7594L46.8636 14.7491L46.2704 13.944ZM45.3604 14.126V13.126C45.2 13.126 45.0953 13.1138 45.034 13.1011C44.9689 13.0877 44.988 13.081 45.0431 13.1187L44.4784 13.944L43.9137 14.7693C44.351 15.0685 44.9037 15.126 45.3604 15.126V14.126ZM44.4784 13.944L45.0716 13.1389C45.0662 13.135 45.0815 13.1453 45.1006 13.1743C45.1206 13.2049 45.1333 13.2385 45.1387 13.2669L44.1564 13.454L43.174 13.6411C43.2636 14.1114 43.5278 14.4857 43.8852 14.7491L44.4784 13.944ZM44.1564 13.454L45.1387 13.2669C45.114 13.137 45.1004 12.9946 45.1004 12.838H44.1004H43.1004C43.1004 13.1107 43.1241 13.379 43.174 13.6411L44.1564 13.454ZM44.1004 12.838H45.1004V5.572H44.1004H43.1004V12.838H44.1004ZM44.1004 5.572H45.1004C45.1004 5.4274 45.1135 5.29738 45.137 5.18011L44.1564 4.984L43.1758 4.78788C43.1246 5.04395 43.1004 5.30593 43.1004 5.572H44.1004ZM44.1564 4.984L45.137 5.18012C45.129 5.21973 45.1114 5.26279 45.0853 5.30029C45.0605 5.33584 45.04 5.34941 45.0431 5.34731L44.4784 4.522L43.9137 3.69669C43.551 3.94482 43.2711 4.31154 43.1758 4.78788L44.1564 4.984ZM44.4784 4.522L45.0234 5.36044C44.9778 5.39006 44.9696 5.38056 45.042 5.36608C45.1108 5.35231 45.2226 5.34 45.3884 5.34V4.34V3.34C44.9203 3.34 44.3718 3.3986 43.9334 3.68356L44.4784 4.522ZM45.3884 4.34V5.34C45.5573 5.34 45.6653 5.35096 45.726 5.36211C45.7551 5.36743 45.7625 5.37087 45.7542 5.3679C45.7467 5.36521 45.7109 5.3518 45.6618 5.31804L46.2284 4.494L46.7949 3.66996C46.5568 3.50629 46.2946 3.43301 46.0867 3.39489C45.8675 3.3547 45.6301 3.34 45.3884 3.34V4.34ZM46.2284 4.494L45.6618 5.31804C45.7159 5.3552 45.7762 5.41004 45.84 5.49345L46.6344 4.886L47.4287 4.27855C47.2499 4.04463 47.0395 3.83813 46.7949 3.66996L46.2284 4.494ZM46.6344 4.886L45.8321 5.48294L49.3321 10.1869L50.1344 9.59L50.9367 8.99306L47.4367 4.28906L46.6344 4.886ZM50.1344 9.59H51.1344V5.572H50.1344H49.1344V9.59H50.1344ZM50.1344 5.572H51.1344C51.1344 5.4274 51.1475 5.29738 51.171 5.18012L50.1904 4.984L49.2098 4.78788C49.1586 5.04395 49.1344 5.30593 49.1344 5.572H50.1344ZM50.1904 4.984L51.1605 5.22653C51.1531 5.25637 51.1384 5.28878 51.1181 5.31667C51.0989 5.34313 51.0847 5.35165 51.0911 5.34731L50.5264 4.522L49.9617 3.69669C49.6078 3.93883 49.3333 4.28932 49.2202 4.74146L50.1904 4.984ZM50.5264 4.522L51.0911 5.34731C51.0335 5.38669 51.0134 5.37952 51.0824 5.36549C51.1469 5.35239 51.2561 5.34 51.4224 5.34V4.34V3.34C50.962 3.34 50.4015 3.3958 49.9617 3.69669L50.5264 4.522ZM51.4224 4.34V5.34C51.5916 5.34 51.6973 5.35336 51.7547 5.3659C51.8173 5.3796 51.778 5.3826 51.7044 5.32535L52.3184 4.536L52.9323 3.74665C52.4824 3.39672 51.8849 3.34 51.4224 3.34V4.34ZM52.3184 4.536L51.7537 5.36131C51.7512 5.35959 51.7284 5.343 51.7036 5.30631C51.6779 5.26833 51.6637 5.22902 51.658 5.19911L52.6404 5.012L53.6227 4.82489C53.5319 4.34809 53.2599 3.96856 52.8831 3.71069L52.3184 4.536ZM52.6404 5.012L51.658 5.19911C51.6828 5.32898 51.6964 5.47141 51.6964 5.628H52.6964H53.6964C53.6964 5.35525 53.6726 5.08702 53.6227 4.82489L52.6404 5.012ZM52.6964 5.628H51.6964V12.852H52.6964H53.6964V5.628H52.6964ZM52.6964 12.852H51.6964C51.6964 12.9964 51.6833 13.1343 51.658 13.2669L52.6404 13.454L53.6227 13.6411C53.6721 13.3817 53.6964 13.1183 53.6964 12.852H52.6964ZM52.6404 13.454L51.658 13.2669C51.6634 13.2385 51.6761 13.2049 51.6962 13.1743C51.7153 13.1453 51.7305 13.135 51.7252 13.1389L52.3184 13.944L52.9116 14.7491C53.269 14.4857 53.5331 14.1114 53.6227 13.6411L52.6404 13.454ZM52.3184 13.944L51.7537 13.1187C51.8137 13.0776 51.8348 13.0853 51.7618 13.0999C51.6941 13.1135 51.5805 13.126 51.4084 13.126V14.126V15.126C51.8725 15.126 52.441 15.0718 52.8831 14.7693L52.3184 13.944ZM51.4084 14.126V13.126C51.2774 13.126 51.177 13.1201 51.103 13.1116C51.0264 13.1028 50.9958 13.093 50.9966 13.0933L50.6804 14.042L50.3641 14.9907C50.6847 15.0975 51.0545 15.126 51.4084 15.126V14.126ZM50.6804 14.042L50.9625 13.0826C50.9936 13.0918 51.0228 13.1065 51.0464 13.1236C51.0689 13.1399 51.0771 13.1517 51.0744 13.148L50.2744 13.748L49.4744 14.348C49.6983 14.6466 50.0065 14.8861 50.3982 15.0014L50.6804 14.042ZM50.2744 13.748L51.0716 13.1443L47.4456 8.35628L46.6484 8.96L45.8512 9.56372L49.4772 14.3517L50.2744 13.748ZM46.6484 8.96H45.6484V12.852H46.6484H47.6484V8.96H46.6484ZM46.6484 12.852H45.6484C45.6484 12.9964 45.6353 13.1343 45.61 13.2669L46.5924 13.454L47.5747 13.6411C47.6241 13.3817 47.6484 13.1183 47.6484 12.852H46.6484ZM46.5924 13.454L45.61 13.2669C45.6154 13.2385 45.6281 13.2049 45.6482 13.1743C45.6673 13.1453 45.6825 13.135 45.6772 13.1389L46.2704 13.944L46.8636 14.7491C47.221 14.4857 47.4851 14.1114 47.5747 13.6411L46.5924 13.454ZM46.2704 13.944L45.7057 13.1187C45.7657 13.0776 45.7868 13.0853 45.7138 13.0999C45.6461 13.1135 45.5325 13.126 45.3604 13.126V14.126V15.126C45.8245 15.126 46.393 15.0718 46.8351 14.7693L46.2704 13.944ZM61.2773 4.354L61.1035 5.33878L61.1035 5.33878L61.2773 4.354ZM61.6693 4.62L60.8452 5.18653L60.8569 5.20351L60.8693 5.22L61.6693 4.62ZM61.6693 6.16L60.8522 5.58327L60.8452 5.59347L61.6693 6.16ZM61.2633 6.426L61.0989 5.43956L61.0895 5.44122L61.2633 6.426ZM58.8273 6.468V5.468H57.8273V6.468H58.8273ZM58.7713 13.482L59.7519 13.6781L59.7536 13.6691L58.7713 13.482ZM58.4493 13.944L57.8846 13.1187L57.8741 13.1259L57.8638 13.1333L58.4493 13.944ZM56.6713 13.944L56.0781 14.7491L56.0922 14.7594L56.1066 14.7693L56.6713 13.944ZM56.3493 13.468L55.3593 13.6094L55.3633 13.6369L55.3687 13.6641L56.3493 13.468ZM56.3073 6.468H57.3073V5.468H56.3073V6.468ZM53.8573 6.426L53.6282 7.39942L53.6603 7.40697L53.6929 7.41239L53.8573 6.426ZM53.4513 6.146L52.6272 6.71253L52.6389 6.72951L52.6513 6.746L53.4513 6.146ZM53.4513 4.62L52.6513 4.02L52.6389 4.03649L52.6272 4.05347L53.4513 4.62ZM53.8713 4.354L54.0357 5.34039V5.34039L53.8713 4.354ZM60.7733 4.312V5.312C60.8981 5.312 61.0076 5.32186 61.1035 5.33878L61.2773 4.354L61.4511 3.36922C61.2296 3.33014 61.0031 3.312 60.7733 3.312V4.312ZM61.2773 4.354L61.1035 5.33878C61.0468 5.32879 60.9866 5.30547 60.9328 5.26898C60.8811 5.2339 60.8541 5.19945 60.8452 5.18653L61.6693 4.62L62.4933 4.05347C62.2595 3.71335 61.9078 3.44981 61.4511 3.36922L61.2773 4.354ZM61.6693 4.62L60.8693 5.22C60.839 5.17969 60.8243 5.14793 60.8188 5.13448C60.8132 5.12113 60.8145 5.12051 60.8183 5.13767C60.8264 5.17499 60.8373 5.25442 60.8373 5.39H61.8373H62.8373C62.8373 4.98372 62.7867 4.44317 62.4693 4.02L61.6693 4.62ZM61.8373 5.39H60.8373C60.8373 5.5188 60.8267 5.5965 60.8183 5.63533C60.8093 5.67639 60.8092 5.64445 60.8523 5.58332L61.6693 6.16L62.4863 6.73668C62.781 6.31912 62.8373 5.8031 62.8373 5.39H61.8373ZM61.6693 6.16L60.8452 5.59347C60.8587 5.57392 60.8895 5.53696 60.9428 5.50204C60.9973 5.46633 61.0533 5.4472 61.0989 5.43961L61.2633 6.426L61.4277 7.41239C61.882 7.33668 62.2479 7.08358 62.4933 6.72653L61.6693 6.16ZM61.2633 6.426L61.0895 5.44122C60.9936 5.45814 60.8841 5.468 60.7593 5.468V6.468V7.468C60.9891 7.468 61.2156 7.44986 61.4371 7.41078L61.2633 6.426ZM60.7593 6.468V5.468H58.8273V6.468V7.468H60.7593V6.468ZM58.8273 6.468H57.8273V12.88H58.8273H59.8273V6.468H58.8273ZM58.8273 12.88H57.8273C57.8273 13.0244 57.8142 13.1623 57.7889 13.2949L58.7713 13.482L59.7536 13.6691C59.803 13.4097 59.8273 13.1463 59.8273 12.88H58.8273ZM58.7713 13.482L57.7907 13.2859C57.7986 13.2463 57.8162 13.2032 57.8424 13.1657C57.8672 13.1302 57.8877 13.1166 57.8846 13.1187L58.4493 13.944L59.014 14.7693C59.3766 14.5212 59.6566 14.1545 59.7519 13.6781L58.7713 13.482ZM58.4493 13.944L57.8638 13.1333C57.9362 13.081 57.9703 13.0863 57.9002 13.1005C57.8369 13.1134 57.7259 13.126 57.5533 13.126V14.126V15.126C58.0084 15.126 58.5911 15.0751 59.0348 14.7547L58.4493 13.944ZM57.5533 14.126V13.126C57.3929 13.126 57.2882 13.1138 57.2269 13.1011C57.1618 13.0877 57.1809 13.081 57.236 13.1187L56.6713 13.944L56.1066 14.7693C56.5439 15.0685 57.0966 15.126 57.5533 15.126V14.126ZM56.6713 13.944L57.2645 13.1389C57.254 13.1312 57.2671 13.1387 57.2861 13.1667C57.3064 13.1967 57.3223 13.2341 57.3299 13.2719L56.3493 13.468L55.3687 13.6641C55.4625 14.133 55.7339 14.4955 56.0781 14.7491L56.6713 13.944ZM56.3493 13.468L57.3392 13.3266C57.3182 13.1791 57.3073 13.0258 57.3073 12.866H56.3073H55.3073C55.3073 13.1169 55.3244 13.3649 55.3593 13.6094L56.3493 13.468ZM56.3073 12.866H57.3073V6.468H56.3073H55.3073V12.866H56.3073ZM56.3073 6.468V5.468H54.3613V6.468V7.468H56.3073V6.468ZM54.3613 6.468V5.468C54.2491 5.468 54.1361 5.45868 54.0217 5.43961L53.8573 6.426L53.6929 7.41239C53.9145 7.44932 54.1374 7.468 54.3613 7.468V6.468ZM53.8573 6.426L54.0863 5.45258C54.1293 5.4627 54.1705 5.48135 54.2045 5.50479C54.2204 5.51574 54.2321 5.52597 54.24 5.53369C54.2478 5.54132 54.2513 5.54602 54.2513 5.546L53.4513 6.146L52.6513 6.746C52.8823 7.05408 53.2086 7.30068 53.6282 7.39942L53.8573 6.426ZM53.4513 6.146L54.2753 5.57947C54.3029 5.61954 54.3152 5.6494 54.3189 5.65922C54.3227 5.66917 54.3205 5.66613 54.3164 5.64538C54.3075 5.60114 54.2973 5.51559 54.2973 5.376H53.2973H52.2973C52.2973 5.77353 52.3417 6.29727 52.6272 6.71253L53.4513 6.146ZM53.2973 5.376H54.2973C54.2973 5.24247 54.3073 5.1615 54.3157 5.1206C54.3195 5.10151 54.3214 5.0993 54.3175 5.1095C54.3136 5.11965 54.3016 5.14831 54.2753 5.18653L53.4513 4.62L52.6272 4.05347C52.3436 4.466 52.2973 4.98123 52.2973 5.376H53.2973ZM53.4513 4.62L54.2513 5.22C54.2437 5.23015 54.2199 5.25811 54.1753 5.28632C54.1293 5.31546 54.0797 5.33306 54.0357 5.34039L53.8713 4.354L53.7069 3.36761C53.2598 3.44212 52.9014 3.6865 52.6513 4.02L53.4513 4.62ZM53.8713 4.354L54.0357 5.34039C54.1501 5.32132 54.2631 5.312 54.3753 5.312V4.312V3.312C54.1514 3.312 53.9285 3.33068 53.7069 3.36761L53.8713 4.354ZM54.3753 4.312V5.312H60.7733V4.312V3.312H54.3753V4.312Z" fill="white" mask="url(#path-1-outside-1_26_465)"/>
<mask id="path-3-outside-2_26_465" maskUnits="userSpaceOnUse" x="61.806" y="5" width="10" height="10" fill="black">
<rect fill="white" x="61.806" y="5" width="10" height="10"/>
<path d="M67.608 9.058H68.742C69.0687 9.058 69.3067 9.1 69.456 9.184C69.6054 9.25867 69.7034 9.37533 69.75 9.534C69.806 9.69267 69.834 9.90733 69.834 10.178C69.834 10.4393 69.8107 10.6493 69.764 10.808C69.7174 10.9667 69.638 11.0787 69.526 11.144C69.358 11.228 69.12 11.27 68.812 11.27H67.608V12.404C67.608 12.7307 67.566 12.9687 67.482 13.118C67.4074 13.2673 67.2907 13.37 67.132 13.426C66.9734 13.4727 66.7587 13.496 66.488 13.496C66.2267 13.496 66.0167 13.4727 65.858 13.426C65.6994 13.37 65.5874 13.2813 65.522 13.16C65.438 12.9827 65.396 12.726 65.396 12.39V11.27H64.178C63.87 11.27 63.646 11.2327 63.506 11.158C63.366 11.0833 63.2727 10.9667 63.226 10.808C63.1794 10.64 63.156 10.4253 63.156 10.164C63.156 9.90267 63.1794 9.69267 63.226 9.534C63.282 9.366 63.3754 9.24933 63.506 9.184C63.6834 9.1 63.94 9.058 64.276 9.058H65.396V7.924C65.396 7.59733 65.4334 7.35933 65.508 7.21C65.5827 7.06067 65.6994 6.96267 65.858 6.916C66.026 6.86 66.2407 6.832 66.502 6.832C66.7634 6.832 66.9734 6.86 67.132 6.916C67.3 6.96267 67.4167 7.04667 67.482 7.168C67.566 7.34533 67.608 7.602 67.608 7.938V9.058Z"/>
</mask>
<path d="M67.608 9.058H68.742C69.0687 9.058 69.3067 9.1 69.456 9.184C69.6054 9.25867 69.7034 9.37533 69.75 9.534C69.806 9.69267 69.834 9.90733 69.834 10.178C69.834 10.4393 69.8107 10.6493 69.764 10.808C69.7174 10.9667 69.638 11.0787 69.526 11.144C69.358 11.228 69.12 11.27 68.812 11.27H67.608V12.404C67.608 12.7307 67.566 12.9687 67.482 13.118C67.4074 13.2673 67.2907 13.37 67.132 13.426C66.9734 13.4727 66.7587 13.496 66.488 13.496C66.2267 13.496 66.0167 13.4727 65.858 13.426C65.6994 13.37 65.5874 13.2813 65.522 13.16C65.438 12.9827 65.396 12.726 65.396 12.39V11.27H64.178C63.87 11.27 63.646 11.2327 63.506 11.158C63.366 11.0833 63.2727 10.9667 63.226 10.808C63.1794 10.64 63.156 10.4253 63.156 10.164C63.156 9.90267 63.1794 9.69267 63.226 9.534C63.282 9.366 63.3754 9.24933 63.506 9.184C63.6834 9.1 63.94 9.058 64.276 9.058H65.396V7.924C65.396 7.59733 65.4334 7.35933 65.508 7.21C65.5827 7.06067 65.6994 6.96267 65.858 6.916C66.026 6.86 66.2407 6.832 66.502 6.832C66.7634 6.832 66.9734 6.86 67.132 6.916C67.3 6.96267 67.4167 7.04667 67.482 7.168C67.566 7.34533 67.608 7.602 67.608 7.938V9.058Z" fill="#EABC2C"/>
<path d="M67.608 9.058H66.608V10.058H67.608V9.058ZM69.456 9.184L68.9658 10.0556L68.987 10.0675L69.0088 10.0784L69.456 9.184ZM69.75 9.534L68.7907 9.81617L68.7982 9.84171L68.807 9.86682L69.75 9.534ZM69.764 10.808L68.8047 10.5258L68.8047 10.5258L69.764 10.808ZM69.526 11.144L69.9732 12.0384L70.0021 12.024L70.0299 12.0078L69.526 11.144ZM67.608 11.27V10.27H66.608V11.27H67.608ZM67.482 13.118L66.6105 12.6277L66.5985 12.649L66.5876 12.6708L67.482 13.118ZM67.132 13.426L67.4142 14.3854L67.4397 14.3779L67.4649 14.369L67.132 13.426ZM65.858 13.426L65.5252 14.369L65.5503 14.3779L65.5759 14.3854L65.858 13.426ZM65.522 13.16L64.6183 13.5881L64.6293 13.6114L64.6416 13.6341L65.522 13.16ZM65.396 11.27H66.396V10.27H65.396V11.27ZM63.506 11.158L63.0354 12.0404H63.0354L63.506 11.158ZM63.226 10.808L62.2625 11.0756L62.2645 11.0829L62.2667 11.0902L63.226 10.808ZM63.226 9.534L62.2773 9.21777L62.2717 9.23471L62.2667 9.25183L63.226 9.534ZM63.506 9.184L63.0779 8.28026L63.0683 8.28482L63.0588 8.28957L63.506 9.184ZM65.396 9.058V10.058H66.396V9.058H65.396ZM65.508 7.21L66.4025 7.65721L66.4025 7.65721L65.508 7.21ZM65.858 6.916L66.1402 7.87536L66.1573 7.87033L66.1743 7.86468L65.858 6.916ZM67.132 6.916L66.7992 7.85899L66.8314 7.87037L66.8644 7.87952L67.132 6.916ZM67.482 7.168L68.3858 6.73991L68.3747 6.71661L68.3625 6.6939L67.482 7.168ZM67.608 9.058V10.058H68.742V9.058V8.058H67.608V9.058ZM68.742 9.058V10.058C68.8659 10.058 68.9461 10.0662 68.9917 10.0743C69.0416 10.0831 69.0208 10.0865 68.9658 10.0556L69.456 9.184L69.9463 8.31242C69.5647 8.09777 69.1107 8.058 68.742 8.058V9.058ZM69.456 9.184L69.0088 10.0784C68.9731 10.0606 68.9228 10.0266 68.8758 9.97069C68.8287 9.91458 68.8029 9.85781 68.7907 9.81617L69.75 9.534L70.7094 9.25183C70.5836 8.82397 70.2982 8.48705 69.9032 8.28957L69.456 9.184ZM69.75 9.534L68.807 9.86682C68.8063 9.86459 68.814 9.88672 68.8214 9.94334C68.8287 9.99875 68.834 10.0757 68.834 10.178H69.834H70.834C70.834 9.85428 70.8026 9.51175 70.693 9.20118L69.75 9.534ZM69.834 10.178H68.834C68.834 10.3923 68.8135 10.4959 68.8047 10.5258L69.764 10.808L70.7234 11.0902C70.8079 10.8027 70.834 10.4864 70.834 10.178H69.834ZM69.764 10.808L68.8047 10.5258C68.8063 10.5203 68.8179 10.4833 68.8535 10.433C68.8914 10.3795 68.9478 10.3236 69.0222 10.2802L69.526 11.144L70.0299 12.0078C70.4184 11.7812 70.6253 11.4236 70.7234 11.0902L69.764 10.808ZM69.526 11.144L69.0788 10.2496C69.1017 10.2381 69.0974 10.2449 69.0477 10.2537C68.9992 10.2623 68.9228 10.27 68.812 10.27V11.27V12.27C69.1875 12.27 69.6049 12.2226 69.9732 12.0384L69.526 11.144ZM68.812 11.27V10.27H67.608V11.27V12.27H68.812V11.27ZM67.608 11.27H66.608V12.404H67.608H68.608V11.27H67.608ZM67.608 12.404H66.608C66.608 12.5279 66.5998 12.6081 66.5917 12.6537C66.583 12.7035 66.5795 12.6827 66.6105 12.6277L67.482 13.118L68.3536 13.6083C68.5683 13.2267 68.608 12.7727 68.608 12.404H67.608ZM67.482 13.118L66.5876 12.6708C66.6036 12.6388 66.6325 12.5963 66.6779 12.5563C66.7232 12.5164 66.768 12.494 66.7992 12.483L67.132 13.426L67.4649 14.369C67.8658 14.2275 68.1849 13.9483 68.3765 13.5652L67.482 13.118ZM67.132 13.426L66.8499 12.4666C66.8223 12.4747 66.7156 12.496 66.488 12.496V13.496V14.496C66.8018 14.496 67.1244 14.4706 67.4142 14.3854L67.132 13.426ZM66.488 13.496V12.496C66.2737 12.496 66.1701 12.4754 66.1402 12.4666L65.858 13.426L65.5759 14.3854C65.8633 14.4699 66.1797 14.496 66.488 14.496V13.496ZM65.858 13.426L66.1909 12.483C66.1975 12.4854 66.2314 12.4983 66.2757 12.5335C66.3225 12.5705 66.3682 12.6222 66.4025 12.6859L65.522 13.16L64.6416 13.6341C64.8495 14.0203 65.1864 14.2494 65.5252 14.369L65.858 13.426ZM65.522 13.16L66.4258 12.7319C66.4344 12.7501 66.4249 12.7371 66.4144 12.673C66.4042 12.6109 66.396 12.5186 66.396 12.39H65.396H64.396C64.396 12.7829 64.4409 13.2137 64.6183 13.5881L65.522 13.16ZM65.396 12.39H66.396V11.27H65.396H64.396V12.39H65.396ZM65.396 11.27V10.27H64.178V11.27V12.27H65.396V11.27ZM64.178 11.27V10.27C64.0611 10.27 63.9858 10.2627 63.9434 10.2556C63.9232 10.2522 63.9167 10.2499 63.9209 10.2512C63.9247 10.2524 63.9454 10.259 63.9766 10.2756L63.506 11.158L63.0354 12.0404C63.4015 12.2356 63.833 12.27 64.178 12.27V11.27ZM63.506 11.158L63.9766 10.2756C64.0189 10.2982 64.0685 10.3356 64.1119 10.3898C64.1547 10.4433 64.176 10.4938 64.1854 10.5258L63.226 10.808L62.2667 11.0902C62.3855 11.4942 62.6476 11.8335 63.0354 12.0404L63.506 11.158ZM63.226 10.808L64.1895 10.5404C64.1759 10.4913 64.156 10.3751 64.156 10.164H63.156H62.156C62.156 10.4755 62.1828 10.7887 62.2625 11.0756L63.226 10.808ZM63.156 10.164H64.156C64.156 9.94968 64.1766 9.84608 64.1854 9.81617L63.226 9.534L62.2667 9.25183C62.1821 9.53926 62.156 9.85565 62.156 10.164H63.156ZM63.226 9.534L64.1747 9.85023C64.1722 9.85789 64.1582 9.8961 64.1189 9.94519C64.0773 9.99721 64.0203 10.0449 63.9532 10.0784L63.506 9.184L63.0588 8.28957C62.6421 8.49791 62.3982 8.85512 62.2773 9.21777L63.226 9.534ZM63.506 9.184L63.9341 10.0877C63.9159 10.0964 63.9289 10.0869 63.993 10.0764C64.0552 10.0662 64.1474 10.058 64.276 10.058V9.058V8.058C63.8831 8.058 63.4523 8.10291 63.0779 8.28026L63.506 9.184ZM64.276 9.058V10.058H65.396V9.058V8.058H64.276V9.058ZM65.396 9.058H66.396V7.924H65.396H64.396V9.058H65.396ZM65.396 7.924H66.396C66.396 7.79562 66.4036 7.70882 66.4119 7.65547C66.4211 7.5972 66.4266 7.60897 66.4025 7.65721L65.508 7.21L64.6136 6.76279C64.4304 7.12922 64.396 7.56327 64.396 7.924H65.396ZM65.508 7.21L66.4025 7.65721C66.3846 7.69297 66.3507 7.74322 66.2947 7.7902C66.2386 7.83734 66.1818 7.86312 66.1402 7.87536L65.858 6.916L65.5759 5.95663C65.148 6.08248 64.8111 6.36784 64.6136 6.76279L65.508 7.21ZM65.858 6.916L66.1743 7.86468C66.2042 7.85471 66.302 7.832 66.502 7.832V6.832V5.832C66.1794 5.832 65.8479 5.86529 65.5418 5.96732L65.858 6.916ZM66.502 6.832V7.832C66.5983 7.832 66.6709 7.83723 66.7234 7.84423C66.7492 7.84767 66.7682 7.85129 66.7813 7.85426C66.7944 7.85725 66.7999 7.85923 66.7992 7.85899L67.132 6.916L67.4648 5.97301C67.1571 5.86439 66.8211 5.832 66.502 5.832V6.832ZM67.132 6.916L66.8644 7.87952C66.8582 7.87779 66.8166 7.86541 66.7612 7.82553C66.702 7.78289 66.6439 7.72071 66.6016 7.6421L67.482 7.168L68.3625 6.6939C68.1358 6.27288 67.7564 6.05156 67.3997 5.95248L67.132 6.916ZM67.482 7.168L66.5783 7.59609C66.5697 7.57788 66.5792 7.59092 66.5897 7.65499C66.5998 7.71714 66.608 7.80937 66.608 7.938H67.608H68.608C68.608 7.54508 68.5631 7.11432 68.3858 6.73991L67.482 7.168ZM67.608 7.938H66.608V9.058H67.608H68.608V7.938H67.608Z" fill="white" mask="url(#path-3-outside-2_26_465)"/>
</svg>
